<svg width="52" height="53" viewBox="0 0 52 53" fill="none" xmlns="http://www.w3.org/2000/svg">
<g clip-path="url(#clip0_80_44)">
<path d="M37.3226 36.5425C36.9996 36.5423 36.6899 36.4139 36.4616 36.1855C36.2332 35.9572 36.1048 35.6475 36.1046 35.3245L36.1032 17.5846L12.9053 40.7825C12.6768 41.011 12.3668 41.1394 12.0435 41.1394C11.7203 41.1394 11.4103 41.011 11.1817 40.7825C10.9532 40.5539 10.8248 40.2439 10.8248 39.9207C10.8248 39.5975 10.9532 39.2875 11.1817 39.0589L34.3796 15.8611L16.6397 15.8596C16.3241 15.8485 16.0252 15.7153 15.8059 15.4881C15.5865 15.2609 15.464 14.9574 15.464 14.6416C15.464 14.3258 15.5865 14.0224 15.8059 13.7952C16.0252 13.568 16.3241 13.4348 16.6397 13.4236L37.3226 13.4236C37.6456 13.4238 37.9552 13.5522 38.1836 13.7806C38.412 14.009 38.5404 14.3187 38.5406 14.6416L38.5406 35.3245C38.5404 35.6475 38.412 35.9572 38.1836 36.1855C37.9553 36.4139 37.6456 36.5423 37.3226 36.5425Z" fill="white"/>
</g>
<defs>
<clipPath id="clip0_80_44">
<rect width="52" height="52" fill="white" transform="translate(0 52.9849) rotate(-90)"/>
</clipPath>
</defs>
</svg>
