<svg width="52" height="53" viewBox="0 0 52 53" fill="none" xmlns="http://www.w3.org/2000/svg">
<g clip-path="url(#clip0_80_239)">
<path d="M16.7699 41.7816C16.7701 41.4587 16.8985 41.149 17.1269 40.9206C17.3553 40.6922 17.6649 40.5638 17.9879 40.5636L35.7278 40.5622L12.5299 17.3644C12.3014 17.1358 12.173 16.8258 12.173 16.5026C12.173 16.1793 12.3014 15.8693 12.5299 15.6408C12.7585 15.4122 13.0685 15.2838 13.3917 15.2838C13.7149 15.2838 14.0249 15.4122 14.2535 15.6408L37.4514 38.8386L37.4528 21.0988C37.4639 20.7832 37.5971 20.4842 37.8243 20.2649C38.0515 20.0456 38.355 19.923 38.6708 19.923C38.9866 19.923 39.29 20.0456 39.5172 20.2649C39.7444 20.4842 39.8776 20.7832 39.8888 21.0988L39.8888 41.7816C39.8886 42.1046 39.7602 42.4143 39.5318 42.6427C39.3034 42.871 38.9937 42.9994 38.6708 42.9996L17.9879 42.9996C17.6649 42.9994 17.3553 42.871 17.1269 42.6427C16.8985 42.4143 16.7701 42.1046 16.7699 41.7816Z" fill="white"/>
</g>
<defs>
<clipPath id="clip0_80_239">
<rect width="52" height="52" fill="white" transform="translate(0 0.984863)"/>
</clipPath>
</defs>
</svg>
