<svg width="234" height="53" viewBox="0 0 234 53" fill="none" xmlns="http://www.w3.org/2000/svg">
<path d="M159.179 45.343C167.457 53.4758 180.887 53.3395 189.307 44.9881C190.465 43.8396 191.495 42.5663 192.373 41.1913C184.024 46.4289 172.981 45.4824 165.873 38.3164C163.542 35.9667 161.883 33.1995 160.894 30.2482L160.656 30.6383V40.7615H155.465C156.413 42.2404 157.521 43.6458 158.792 44.9531C158.824 44.9861 158.855 45.0186 158.888 45.0513C158.92 45.0842 158.951 45.1168 158.984 45.1492L158.986 45.1503C159.017 45.1825 159.049 45.2147 159.082 45.2464C159.114 45.2787 159.146 45.3109 159.179 45.343Z" fill="url(#paint0_linear_10_6)"/>
<path d="M153.094 16.8943C154.398 13.5336 156.412 10.386 159.137 7.68356C169.459 -2.55583 186.088 -2.55262 196.408 7.64186C188.129 -0.490936 174.699 -0.354644 166.281 7.99657C165.121 9.14513 164.092 10.4186 163.214 11.7937C162.694 12.6049 162.236 13.4422 161.835 14.2995L156.674 22.7706L153.094 16.8943Z" fill="url(#paint1_linear_10_6)"/>
<path d="M159.179 45.343C169.499 55.5375 186.127 55.5406 196.451 45.3012C197.685 44.0763 198.774 42.76 199.718 41.3737C197.918 41.3661 196.269 41.0711 194.817 40.4966C194.261 40.2768 193.734 40.0163 193.237 39.7161C192.97 40.2163 192.682 40.7085 192.373 41.1914C191.495 42.5665 190.465 43.8398 189.307 44.9882C180.887 53.3395 167.457 53.4758 159.179 45.343Z" fill="url(#paint2_linear_10_6)"/>
<path d="M187.803 12.9617C180.731 7.38582 170.847 7.00548 163.214 11.7939C164.092 10.4188 165.122 9.14533 166.281 7.99676C174.7 -0.354449 188.13 -0.49074 196.408 7.64206C196.441 7.67418 196.472 7.70629 196.505 7.73862C196.538 7.77046 196.57 7.80271 196.601 7.83494L196.604 7.83679C196.635 7.86899 196.667 7.90118 196.698 7.93377C196.731 7.96651 196.763 7.99903 196.794 8.03196C200.532 11.8767 202.869 16.5723 203.81 21.4816V27.8464C203.81 29.9619 203.441 31.5026 202.713 32.4257C202.412 32.8098 202.019 33.1077 201.572 33.2902C201.089 33.4912 200.502 33.5929 199.823 33.5929C199.154 33.5929 198.572 33.4913 198.092 33.2907C197.642 33.1069 197.248 32.8081 196.946 32.4235C196.209 31.4955 195.836 29.9556 195.836 27.8464V19.0055C195.84 17.1721 195.131 15.4113 193.864 14.1064C193.252 13.4728 192.522 12.9668 191.717 12.6169C190.885 12.2539 189.989 12.0674 189.084 12.069H187.803V12.9617Z" fill="url(#paint3_linear_10_6)"/>
<path d="M177.795 30.9079C180.233 30.9079 182.21 28.931 182.21 26.4925C182.21 24.0539 180.233 22.0771 177.795 22.0771C175.356 22.0771 173.379 24.0539 173.379 26.4925C173.379 28.931 175.356 30.9079 177.795 30.9079Z" fill="white"/>
<path d="M223.115 26.0464L231.356 13.372H225.446L220.11 21.8841L215.987 15.4323C215.588 14.8014 215.038 14.2825 214.39 13.9226C213.742 13.5628 213.015 13.3735 212.277 13.372H205.092V27.8464C205.092 32.8336 203.167 34.8961 199.823 34.8961C196.514 34.8961 194.555 32.8336 194.555 27.8464V19.0054C194.555 15.8942 192.105 13.372 189.084 13.372V28.0713C189.084 35.7959 193.068 40.0707 199.79 40.0707C206.51 40.0707 210.496 35.7959 210.496 28.0713V16.5367L216.766 26.2713L208.018 39.6208H214.301L219.906 30.5087L226.398 40.8955C226.788 41.5237 227.328 42.0412 227.969 42.4005C228.609 42.7596 229.328 42.9487 230.059 42.9503H234L223.115 26.0464Z" fill="white"/>
<path d="M20.9596 33.9736H8.64157L6.29167 39.5843H0L11.8253 13.4009H17.8896L29.7528 39.5843H23.3096L20.9596 33.9736ZM19.0266 29.3727L14.8196 19.3483L10.6125 29.3727H19.0266Z" fill="#FA6E37"/>
<path d="M50.0674 26.081H55.6769V36.704C52.7584 38.8735 48.7409 40.0331 44.9507 40.0331C36.6123 40.0331 30.4722 34.3849 30.4722 26.4925C30.4722 18.6 36.6123 12.9519 45.0644 12.9519C49.7263 12.9519 53.5923 14.5229 56.1696 17.4778L52.2279 21.0688C50.2949 19.0489 48.0586 18.1137 45.3676 18.1137C40.213 18.1137 36.6882 21.5176 36.6882 26.4925C36.6882 31.3926 40.213 34.8711 45.2917 34.8711C46.9594 34.8711 48.5134 34.5719 50.0674 33.749V26.081Z" fill="#FA6E37"/>
<path d="M81.3625 34.7214V39.5839H60.8198V13.4006H80.8698V18.2632H66.922V23.9487H79.24V28.6617H66.922V34.7213L81.3625 34.7214Z" fill="#FA6E37"/>
<path d="M112.302 13.4006V39.5839H107.262L94.0339 23.6868V39.584H87.9695V13.4006H90.7313C91.4556 13.4006 92.1708 13.5592 92.8254 13.8653C93.4799 14.1712 94.0574 14.6167 94.5164 15.1698L106.238 29.2976V13.4006H112.302Z" fill="#FA6E37"/>
<path d="M117.289 26.4925C117.289 18.6 123.429 12.9519 131.691 12.9519C136.278 12.9519 140.106 14.5978 142.608 17.5901L138.665 21.181C136.884 19.1611 134.648 18.1137 131.995 18.1137C127.03 18.1137 123.505 21.5551 123.505 26.4925C123.505 31.4299 127.03 34.8711 131.995 34.8711C134.648 34.8711 136.884 33.8238 138.665 31.7666L142.608 35.3574C140.106 38.3872 136.278 40.0329 131.653 40.0329C123.429 40.0329 117.289 34.3849 117.289 26.4925Z" fill="white"/>
<path d="M159.479 30.3076V39.584H153.339V30.2327L143.068 13.4006H147.199C147.928 13.4006 148.644 13.5865 149.278 13.9402C149.911 14.2938 150.441 14.8034 150.816 15.4192L156.674 25.0334L163.762 13.4006H169.788L159.479 30.3076Z" fill="#FA6E37"/>
<defs>
<linearGradient id="paint0_linear_10_6" x1="160.617" y1="7.6843" x2="194.214" y2="40.2095" gradientUnits="userSpaceOnUse">
<stop stop-color="#FFB37B"/>
<stop offset="1" stop-color="#FA824D"/>
</linearGradient>
<linearGradient id="paint1_linear_10_6" x1="160.617" y1="7.68431" x2="194.215" y2="40.2095" gradientUnits="userSpaceOnUse">
<stop stop-color="#FFB37B"/>
<stop offset="1" stop-color="#FA824D"/>
</linearGradient>
<linearGradient id="paint2_linear_10_6" x1="168.589" y1="8.27206" x2="191.288" y2="50.1323" gradientUnits="userSpaceOnUse">
<stop stop-color="#FC8E59"/>
<stop offset="1" stop-color="#F95B23"/>
</linearGradient>
<linearGradient id="paint3_linear_10_6" x1="168.59" y1="8.27218" x2="191.289" y2="50.1324" gradientUnits="userSpaceOnUse">
<stop stop-color="#FC8E59"/>
<stop offset="1" stop-color="#F95B23"/>
</linearGradient>
</defs>
</svg>
