<svg width="52" height="53" viewBox="0 0 52 53" fill="none" xmlns="http://www.w3.org/2000/svg">
<path d="M28.4103 44.6236C28.1821 44.3951 28.0539 44.0853 28.0539 43.7623C28.0539 43.4394 28.1821 43.1296 28.4103 42.9011L40.9533 30.3561L8.14658 30.3561C7.82335 30.3561 7.51336 30.2277 7.2848 29.9991C7.05624 29.7705 6.92783 29.4605 6.92783 29.1373C6.92783 28.8141 7.05624 28.5041 7.2848 28.2755C7.51336 28.047 7.82335 27.9186 8.14658 27.9186L40.9533 27.9186L28.4103 15.3736C28.1951 15.1425 28.0779 14.837 28.0834 14.5212C28.089 14.2055 28.2169 13.9042 28.4402 13.6809C28.6635 13.4576 28.9647 13.3297 29.2805 13.3242C29.5962 13.3186 29.9018 13.4358 30.1328 13.6511L44.7578 28.2761C44.9861 28.5046 45.1143 28.8144 45.1143 29.1373C45.1143 29.4603 44.9861 29.7701 44.7578 29.9986L30.1328 44.6236C29.9043 44.8518 29.5946 44.98 29.2716 44.98C28.9486 44.98 28.6388 44.8518 28.4103 44.6236Z" fill="white"/>
</svg>
