<svg width="247" height="231" viewBox="0 0 247 231" fill="none" xmlns="http://www.w3.org/2000/svg">
<path d="M178.471 54.8459H123.108C117.585 54.8459 113.108 59.323 113.108 64.8459V229.356H234.529C240.052 229.356 244.529 224.878 244.529 219.356V113.367" stroke="#FFC8B3" stroke-opacity="0.18" stroke-dasharray="9 9"/>
<path d="M178.46 17.8343C178.46 15.0729 180.698 12.8343 183.46 12.8343H274C276.761 12.8343 279 15.0729 279 17.8343V108.375C279 111.136 276.761 113.375 274 113.375H178.46V17.8343Z" fill="#FA6E37" fill-opacity="0.37"/>
<path d="M259.816 101.025V101.525H252.991V101.025H246.167V101.525H239.343V101.025H232.518V101.525H225.694V101.025H218.87V101.525H212.045V101.025H205.221V101.525H198.397V101.025H191.572V101.525H184.748V101.025H177.924V101.525H171.099V101.025H168.187V98.1133H167.687V91.2889H168.187V84.4646H167.687V77.6403H168.187V70.8159H167.687V63.9916H168.187V57.1673H167.687V50.343H168.187V43.5187H167.687V36.6943H168.187V29.87H167.687V23.0457H168.187V16.2214H167.687V9.39703H168.187V5.98486C168.187 5.37378 168.309 4.79234 168.529 4.26245L168.067 4.07093C168.574 2.84872 169.551 1.87109 170.773 1.36427L170.965 1.82613C171.495 1.60639 172.076 1.48486 172.687 1.48486H176.46V0.984863H184.005V1.48486H191.55V0.984863H199.095V1.48486H206.64V0.984863H214.185V1.48486H221.73V0.984863H229.275V1.48486H236.82V0.984863H244.365V1.48486H251.91V0.984863H259.455V1.48486H263.228C263.839 1.48486 264.42 1.60639 264.95 1.82613L265.142 1.36427C266.364 1.87109 267.342 2.84872 267.848 4.07092L267.387 4.26245C267.606 4.79234 267.728 5.37378 267.728 5.98486V9.75739H268.228V17.3024H267.728V24.8475H268.228V32.3925H267.728V39.9376H268.228V47.4826H267.728V55.0277H268.228V62.5727H267.728V70.1177H268.228V77.6628H267.728V85.2078H268.228V92.7529H267.728V96.5254C267.728 97.1365 267.606 97.7179 267.387 98.2478L267.848 98.4393C267.342 99.6615 266.364 100.639 265.142 101.146L264.95 100.684C264.42 100.904 263.839 101.025 263.228 101.025H259.816Z" stroke="#733F2A" stroke-dasharray="7 7"/>
<circle cx="146.622" cy="77.3479" r="3.35135" fill="#FA6E37"/>
<circle cx="155" cy="77.3479" r="3.35135" fill="#FA6E37"/>
<circle cx="163.379" cy="77.3479" r="3.35135" fill="#FA6E37"/>
<circle cx="171.757" cy="77.3479" r="3.35135" fill="#FA6E37"/>
<circle cx="180.136" cy="77.3479" r="3.35135" fill="#FA6E37"/>
<circle cx="188.514" cy="77.3479" r="3.35135" fill="#FA6E37"/>
<circle cx="196.892" cy="77.3479" r="3.35135" fill="#FA6E37"/>
<circle cx="138.363" cy="199.313" r="3.35135" transform="rotate(90 138.363 199.313)" fill="#4B413D"/>
<circle cx="83.4243" cy="209.008" r="3.35135" transform="rotate(90 83.4243 209.008)" fill="#4B413D"/>
<circle cx="23.2199" cy="219.78" r="3.35135" transform="rotate(90 23.2199 219.78)" fill="#4B413D"/>
<circle cx="128.428" cy="199.313" r="3.35135" transform="rotate(90 128.428 199.313)" fill="#4B413D"/>
<circle cx="73.4901" cy="209.008" r="3.35135" transform="rotate(90 73.4901 209.008)" fill="#4B413D"/>
<circle cx="13.2856" cy="219.78" r="3.35135" transform="rotate(90 13.2856 219.78)" fill="#4B413D"/>
<circle cx="118.494" cy="199.313" r="3.35135" transform="rotate(90 118.494 199.313)" fill="#4B413D"/>
<circle cx="63.5558" cy="209.008" r="3.35135" transform="rotate(90 63.5558 209.008)" fill="#4B413D"/>
<circle cx="3.35141" cy="219.78" r="3.35135" transform="rotate(90 3.35141 219.78)" fill="#4B413D"/>
<circle cx="108.56" cy="199.313" r="3.35135" transform="rotate(90 108.56 199.313)" fill="#4B413D"/>
<circle cx="53.6214" cy="209.008" r="3.35135" transform="rotate(90 53.6214 209.008)" fill="#4B413D"/>
<circle cx="98.6253" cy="199.313" r="3.35135" transform="rotate(90 98.6253 199.313)" fill="#4B413D"/>
<circle cx="43.6872" cy="209.008" r="3.35135" transform="rotate(90 43.6872 209.008)" fill="#4B413D"/>
<circle cx="88.6911" cy="199.313" r="3.35135" transform="rotate(90 88.6911 199.313)" fill="#4B413D"/>
<circle cx="33.7528" cy="209.008" r="3.35135" transform="rotate(90 33.7528 209.008)" fill="#4B413D"/>
<circle cx="78.7567" cy="199.313" r="3.35135" transform="rotate(90 78.7567 199.313)" fill="#4B413D"/>
<circle cx="23.8185" cy="209.008" r="3.35135" transform="rotate(90 23.8185 209.008)" fill="#4B413D"/>
</svg>
