<svg width="43" height="44" viewBox="0 0 43 44" fill="none" xmlns="http://www.w3.org/2000/svg">
<rect y="0.984863" width="43" height="43" rx="5" fill="#CCCCCC"/>
<path fill-rule="evenodd" clip-rule="evenodd" d="M27.0043 28.0923C26.9853 28.2913 26.9082 28.4803 26.7812 28.6343C26.6542 28.7893 26.4843 28.9013 26.2933 28.9583C26.1013 29.0153 25.8973 29.0133 25.7063 28.9533C25.5163 28.8933 25.3483 28.7773 25.2243 28.6203C24.1343 27.7543 22.4343 26.5063 22.4343 26.5063C22.4343 26.5063 21.2042 28.6733 20.9842 28.8953C20.9112 28.9563 20.8273 29.0013 20.7363 29.0283C20.6443 29.0543 20.5492 29.0613 20.4552 29.0493C20.3612 29.0363 20.2703 29.0043 20.1893 28.9553C20.1083 28.9063 20.0382 28.8403 19.9842 28.7623C19.9732 28.7283 19.9593 28.6943 19.9443 28.6623L20.6342 25.2103L25.5542 20.3773L18.8443 24.2063C18.8443 24.2063 15.8142 23.3003 15.3642 23.1233C15.2482 23.0593 15.1522 22.9643 15.0882 22.8493C15.0242 22.7333 14.9932 22.6023 15.0012 22.4703C15.0082 22.3383 15.0533 22.2103 15.1293 22.1033C15.2063 21.9953 15.3123 21.9113 15.4343 21.8613C16.0743 21.5353 27.3642 17.2233 27.7442 17.1123C28.1242 17.0013 29.1242 16.7123 29.0142 17.6853C28.9042 18.6583 27.1143 27.5573 27.0043 28.0923Z" fill="#333333"/>
</svg>
