<svg width="209" height="87" viewBox="0 0 209 87" fill="none" xmlns="http://www.w3.org/2000/svg">
<path d="M208.104 73.658H0.869751V86.9849H208.104V73.658Z" fill="#F57F17"/>
<path d="M188.891 75.5005H185.461V84.6075H188.891V75.5005Z" fill="white"/>
<path d="M201.475 81.5719V84.609H193.128V75.5005H196.263V81.5719H201.475Z" fill="white"/>
<path fill-rule="evenodd" clip-rule="evenodd" d="M171.85 77.0426C175.036 77.0426 177.618 78.4254 177.618 80.1296C177.618 81.833 175.036 83.2158 171.85 83.2158C168.664 83.2158 166.082 81.839 166.082 80.113C166.082 78.3869 168.664 77.026 171.85 77.026M171.85 75.1155C177.009 75.1155 181.188 77.3527 181.188 80.113C181.188 82.8733 177.009 85.1108 171.85 85.1108C166.691 85.1108 162.513 82.8891 162.513 80.113C162.513 77.3368 166.691 75.1318 171.85 75.1318V75.1155Z" fill="white"/>
<path d="M190.766 58.353H175.497V68.6605H190.766V58.353Z" fill="white"/>
<path d="M208.105 27.4299V45.2421C208.105 46.2292 207.9 47.1724 207.523 48.045C206.393 50.6686 203.719 52.6343 200.47 53.0946C199.992 53.1633 199.499 53.1987 198.998 53.1987H167.267C166.766 53.1987 166.274 53.1633 165.796 53.0946C162.546 52.6343 159.873 50.6686 158.743 48.045C158.366 47.1724 158.161 46.2292 158.161 45.2421V27.4299H173.428V42.8911H192.835V27.4299H208.105Z" fill="white"/>
<path d="M130.875 42.6831H115.606V68.4519H130.875V42.6831Z" fill="white"/>
<path d="M148.214 27.2224H98.2703V37.5299H148.214V27.2224Z" fill="white"/>
<path d="M85.0075 27.2224H69.672V68.4524H85.0075V27.2224Z" fill="white"/>
<path d="M54.3259 35.1789C54.3259 34.192 54.121 33.2486 53.7441 32.3761C52.6136 29.7545 49.9446 27.793 46.698 27.3286C46.2155 27.2578 45.7206 27.2224 45.2154 27.2224H9.98029C9.47922 27.2224 8.98641 27.2578 8.5081 27.3265C5.25731 27.7867 2.58213 29.7524 1.45158 32.3761C1.07474 33.2466 0.869751 34.1898 0.869751 35.1789V60.4958C0.869751 61.4828 1.07474 62.4261 1.45158 63.2987C2.58213 65.9224 5.25731 67.8881 8.5081 68.3483C8.98641 68.417 9.47922 68.4524 9.98029 68.4524H45.2154C45.7206 68.4524 46.2155 68.417 46.698 68.3462C49.9446 67.884 52.6136 65.9203 53.7441 63.2987C54.121 62.4261 54.3259 61.4828 54.3259 60.4958C54.3259 59.9502 54.3294 59.4054 54.3363 58.8612V58.1449V52.9912H39.0595V54.7257C39.0679 54.809 39.072 54.8965 39.072 54.9797C39.072 55.063 39.0679 55.1526 39.0595 55.2338C38.9415 56.5269 37.931 57.6035 36.5666 57.9888C35.9474 58.1345 35.8522 58.1428 35.7632 58.1449H19.2835C19.2109 58.1449 18.7161 58.02 18.6271 57.9845C17.186 57.566 16.1465 56.3791 16.1465 54.9819V40.695C16.1465 39.2978 17.186 38.1088 18.6271 37.6923C18.6271 37.6923 19.0473 37.532 19.2876 37.532H35.8895C35.8895 37.532 36.0158 37.5382 36.5666 37.6882C37.931 38.0733 38.9415 39.1499 39.0595 40.443C39.0679 40.5264 39.072 40.6138 39.072 40.6971C39.072 40.7804 39.0679 40.8699 39.0595 40.9512V42.6857H54.3363V37.532L54.3259 35.181V35.1789Z" fill="white"/>
<path d="M77.2169 22.2246C83.0541 22.2246 87.7855 17.4699 87.7855 11.6047C87.7855 5.73953 83.0541 0.984863 77.2169 0.984863C71.3797 0.984863 66.6478 5.73953 66.6478 11.6047C66.6478 17.4699 71.3797 22.2246 77.2169 22.2246Z" fill="#F57F17"/>
</svg>
