<svg width="409" height="56" viewBox="0 0 409 56" fill="none" xmlns="http://www.w3.org/2000/svg">
<path d="M86.1579 4.35575L71.8812 28.0073H64.4557L80.9528 0.246171H87.2361L87.2611 23.7433L101.357 0.246171H107.64L107.587 28.0073H106.523V4.35575L92.4194 28.0073H86.1439L86.1579 4.35575ZM129.453 0.243054C131.982 0.215591 134.473 0.861548 136.67 2.11458C138.797 3.31585 140.57 5.05601 141.811 7.15993C143.062 9.26095 143.714 11.6644 143.696 14.1096C143.718 16.5674 143.066 18.9844 141.811 21.0982C140.57 23.2022 138.797 24.9423 136.67 26.1435C134.473 27.3966 131.982 28.0425 129.453 28.0151H128.007C125.46 28.044 122.951 27.3982 120.734 26.1435C118.602 24.9492 116.827 23.2074 115.593 21.0982C114.348 18.981 113.7 16.5656 113.721 14.1096C113.699 11.6597 114.346 9.25041 115.593 7.14121C116.829 5.03596 118.604 3.29735 120.734 2.10367C122.951 0.848963 125.46 0.203228 128.007 0.232131L129.453 0.243054ZM129.765 21.3415C131.961 21.3626 134.146 21.0347 136.239 20.3698C137.988 19.8532 139.6 18.9557 140.96 17.7419C141.492 17.2931 141.923 16.7371 142.225 16.1104C142.527 15.4836 142.693 14.8002 142.713 14.1049C142.69 13.4158 142.522 12.7392 142.22 12.1193C141.918 11.4993 141.489 10.9499 140.96 10.5069C139.6 9.29313 137.988 8.39564 136.239 7.87891C134.146 7.2141 131.961 6.88614 129.765 6.90728H127.701C125.499 6.88718 123.308 7.2151 121.209 7.87891C119.453 8.39286 117.834 9.29051 116.468 10.5069C115.94 10.9499 115.511 11.4993 115.209 12.1193C114.907 12.7392 114.739 13.4158 114.716 14.1049C114.736 14.8002 114.902 15.4836 115.204 16.1104C115.506 16.7371 115.937 17.2931 116.468 17.7419C117.834 18.9583 119.453 19.8559 121.209 20.3698C123.308 21.0337 125.499 21.3616 127.701 21.3415H129.765ZM177.325 28.0073H147.503V22.2133H150.968L156.07 0.243054H173.858V22.2133H177.323L177.325 28.0073ZM172.755 22.2133V7.44222H155.499L152.145 22.2133H172.755ZM208.571 28.0073H207.467L207.443 17.4191H184.134V28.0073H183.029L183.018 0.246171H184.123L184.134 12.238H207.437L207.454 0.246171H208.559L208.571 28.0073ZM239.086 15.705C238.932 15.1311 238.661 14.5949 238.291 14.1297C237.921 13.6645 237.459 13.2803 236.935 13.0007C235.852 12.3358 234.607 11.9804 233.336 11.9729H216.537V0.243054H215.395L215.382 28.0041H229.052C231.053 28.0743 233.052 27.7908 234.954 27.1666C236.395 26.4545 237.548 25.2713 238.223 23.8135C239 22.1472 239.359 20.3172 239.27 18.4812C239.297 17.5519 239.234 16.6222 239.081 15.705H239.086ZM244.827 0.243054H243.722L243.737 28.0041H244.842L244.827 0.243054ZM238.209 17.1134C238.27 17.7325 238.126 18.3545 237.8 18.8841C237.473 19.4137 236.982 19.8216 236.401 20.0454C235.133 20.5394 233.783 20.7851 232.422 20.7691H216.537V13.0771H233.329C234.568 13.0446 235.781 13.429 236.775 14.1688C237.235 14.5067 237.605 14.9514 237.854 15.4644C238.103 15.9775 238.224 16.5435 238.205 17.1134H238.209ZM279.557 0.243054L279.567 28.0041H278.462L278.49 4.01108L258.309 28.0041H251.643L251.7 0.243054H252.842L252.822 24.1971L272.89 0.243054H279.557Z" fill="white"/>
<path d="M261.08 8.04858L261.11 0.250525L267.867 0.250525L261.08 8.04858Z" fill="white"/>
<path d="M287.91 14.1424C287.887 11.6894 288.525 9.27545 289.757 7.1538C290.98 5.04249 292.749 3.29956 294.878 2.10846C297.107 0.850407 299.63 0.204691 302.19 0.236926H303.636C305.805 0.21729 307.951 0.679121 309.92 1.5891C311.806 2.45709 313.472 3.7392 314.794 5.33997C316.112 6.93651 317.037 8.81931 317.496 10.8376L315.744 11.1807C314.459 9.74854 312.816 8.68382 310.984 8.0958C308.724 7.28701 306.339 6.88722 303.939 6.91518H301.886C299.69 6.89404 297.505 7.22201 295.412 7.88682C293.659 8.40662 292.041 9.30358 290.672 10.5148C290.136 10.9609 289.7 11.5159 289.395 12.143C289.09 12.77 288.921 13.4547 288.901 14.1518C288.925 14.8426 289.095 15.5205 289.4 16.1407C289.705 16.761 290.139 17.3094 290.672 17.7498C292.041 18.961 293.659 19.8579 295.412 20.3777C297.505 21.0425 299.69 21.3705 301.886 21.3494H303.942C306.342 21.3773 308.727 20.9775 310.987 20.1688C312.82 19.5783 314.462 18.5108 315.746 17.076L317.498 17.4192C317.009 19.4116 316.086 21.2714 314.794 22.8653C313.489 24.4726 311.835 25.7617 309.957 26.6349C307.979 27.5594 305.819 28.028 303.636 28.0058H302.182C299.629 28.0395 297.112 27.3935 294.891 26.1343C292.767 24.9358 290.999 23.1946 289.77 21.0889C288.533 18.9842 287.89 16.5835 287.91 14.1424ZM348.645 18.1787C348.701 19.9445 348.535 21.7104 348.15 23.4346C347.742 24.903 346.768 26.1498 345.441 26.9016C343.215 27.7762 340.824 28.1531 338.436 28.0058H323.547L323.571 0.24472H337.24C339.604 0.109874 341.972 0.439991 344.209 1.21636C344.862 1.55733 345.437 2.02932 345.899 2.60281C346.361 3.17629 346.7 3.83893 346.894 4.54925C347.318 6.42247 347.498 8.34276 347.428 10.2621C347.388 10.9437 347.164 11.6018 346.78 12.1664C346.325 12.8991 345.678 13.4927 344.908 13.882C345.901 14.1729 346.805 14.7093 347.535 15.4416C347.897 15.7983 348.183 16.2253 348.373 16.6962C348.564 17.1672 348.657 17.6707 348.645 18.1787ZM341.486 13.57C342.602 13.5703 343.701 13.2955 344.685 12.77C345.139 12.575 345.525 12.2508 345.796 11.8379C346.066 11.4249 346.21 10.9414 346.208 10.4477C346.208 9.9279 346.039 9.42208 345.727 9.00654C345.414 8.59101 344.975 8.28832 344.476 8.14416C343.233 7.65839 341.909 7.41895 340.575 7.43921H324.694V13.57H341.486ZM341.798 20.7676C343.23 20.8364 344.656 20.5487 345.949 19.9301C346.386 19.7451 346.762 19.439 347.032 19.0478C347.302 18.6566 347.454 18.1966 347.471 17.7217C347.478 17.3847 347.405 17.0509 347.26 16.7469C347.114 16.4428 346.9 16.1769 346.634 15.9703C346.058 15.5044 345.389 15.1668 344.672 14.9799C344.035 14.791 343.375 14.6862 342.711 14.668H324.694V20.7614L341.798 20.7676ZM377.972 22.2103L377.927 28.0043H355.264L355.309 0.243161H377.966V5.99813H356.337V13.5732H374.844V14.6774H356.337V22.2134L377.972 22.2103ZM396.137 28.0043V6.00281H383.411V0.247837H408.971V6.00281H397.233V28.012L396.137 28.0043Z" fill="white"/>
<path d="M44.4556 27.7996C44.3074 27.7996 44.1436 27.7996 43.9673 27.7902C43.5085 27.5828 43.0311 27.3707 42.5536 27.1664C42.7097 27.1149 42.8922 27.0557 43.0779 26.9886C43.6771 27.2553 44.2793 27.5282 44.8707 27.7996H44.8473H44.4556ZM45.3076 27.7715C44.646 27.4783 43.9688 27.1851 43.2995 26.8982C43.4555 26.8404 43.6115 26.7749 43.7863 26.7016C44.5539 27.0323 45.3201 27.3692 46.0659 27.7045C45.7944 27.7357 45.5385 27.7575 45.3076 27.7715ZM43.507 27.7715C43.1107 27.7403 42.7128 27.6936 42.343 27.639L41.7766 27.3816C41.9514 27.338 42.1417 27.2865 42.3414 27.2257C42.7362 27.4066 43.1216 27.5891 43.507 27.7669V27.7715ZM46.4996 27.653C45.6758 27.2974 44.841 26.9465 44.0188 26.6065C44.1592 26.5441 44.309 26.4739 44.4744 26.3928C45.3731 26.7671 46.2781 27.1524 47.1628 27.5376C46.9178 27.5859 46.6947 27.6234 46.5012 27.653H46.4996ZM47.5919 27.4471C46.6416 27.051 45.6727 26.6564 44.7131 26.2743C44.8473 26.2041 44.9908 26.1277 45.1391 26.0435C46.1595 26.4521 47.1831 26.8732 48.1832 27.2912C47.9741 27.3504 47.776 27.4003 47.5919 27.4471ZM48.6029 27.1711C47.531 26.7391 46.4466 26.3149 45.3793 25.9062C45.5026 25.8329 45.6337 25.7503 45.7772 25.6629C46.9038 26.0965 48.0334 26.5426 49.135 26.9902C48.94 27.0604 48.7652 27.1181 48.6045 27.1695L48.6029 27.1711ZM49.5516 26.8342C48.3814 26.3819 47.1924 25.9343 46.0191 25.507C46.1345 25.429 46.2578 25.351 46.392 25.2496C47.6012 25.6941 48.8276 26.1589 50.0368 26.6299C49.8527 26.7094 49.7014 26.7749 49.5516 26.8342ZM50.4456 26.4412C49.1865 25.9733 47.9039 25.5148 46.6338 25.0734C46.7415 24.9923 46.8554 24.905 46.9818 24.8052C48.2893 25.2621 49.6031 25.7409 50.8825 26.2182L50.7671 26.279L50.441 26.4349L50.4456 26.4412ZM51.2929 25.9951C49.9401 25.5195 48.5717 25.0594 47.2236 24.6071C47.325 24.5229 47.4311 24.4308 47.5497 24.3264C48.9306 24.7849 50.3271 25.2621 51.7017 25.7518C51.5379 25.8532 51.4099 25.9281 51.2929 25.9951ZM52.0933 25.5007C50.6703 25.0329 49.2224 24.565 47.7869 24.1111C47.8805 24.0238 47.9788 23.9302 48.088 23.821C49.5485 24.278 51.0214 24.7568 52.4678 25.2418C52.3789 25.3058 52.2572 25.3994 52.0933 25.5007ZM52.8516 24.958C51.3537 24.4901 49.8293 24.0222 48.3268 23.584C48.4126 23.4951 48.5046 23.3984 48.6076 23.2845C50.1351 23.7337 51.6814 24.2047 53.2011 24.6882C53.1122 24.7615 52.9999 24.8441 52.8579 24.9611L52.8516 24.958ZM53.5662 24.37C51.9966 23.9021 50.4035 23.4561 48.8323 23.0272C48.9134 22.9336 48.9977 22.8338 49.0897 22.7153C50.6859 23.1535 52.2962 23.612 53.8799 24.0815C53.7566 24.1969 53.6599 24.2842 53.5678 24.3653L53.5662 24.37ZM54.2372 23.7462C52.602 23.3001 50.9449 22.8634 49.3097 22.4486C49.3831 22.3534 49.4658 22.2505 49.5469 22.1367C51.2102 22.5593 52.8844 23.0022 54.5243 23.453C54.4229 23.5606 54.3292 23.6573 54.2387 23.7493L54.2372 23.7462ZM54.8613 23.074C53.1731 22.6482 51.4552 22.2318 49.756 21.8356C49.8246 21.7358 49.8949 21.6313 49.9713 21.5128C51.6954 21.9152 53.4289 22.3363 55.1203 22.7605C55.0314 22.8697 54.9393 22.9773 54.8597 23.0724L54.8613 23.074ZM55.4402 22.3612C53.7004 21.9604 51.9264 21.569 50.171 21.1962C50.2319 21.0964 50.2959 20.9903 50.3661 20.8671C52.1526 21.2477 53.9392 21.6469 55.6711 22.0431C55.604 22.1382 55.5291 22.238 55.4371 22.355L55.4402 22.3612ZM55.9707 21.6126C54.1638 21.2274 52.3399 20.864 50.5455 20.5193C50.6001 20.418 50.6578 20.3088 50.7203 20.184C52.5521 20.5334 54.387 20.8999 56.1813 21.2757C56.1064 21.3958 56.0393 21.5019 55.9722 21.6033L55.9707 21.6126ZM56.4512 20.8328C54.607 20.4928 52.7377 20.1622 50.8935 19.8503C50.9418 19.7473 50.9918 19.6366 51.0495 19.5087C52.9406 19.83 54.8207 20.1622 56.6385 20.4975C56.587 20.5942 56.5308 20.6987 56.4559 20.8328H56.4512ZM56.8788 20.0187L56.5995 19.961C54.8036 19.674 52.9827 19.3933 51.1883 19.1297C51.2305 19.0221 51.2757 18.9098 51.321 18.7819C53.1231 19.0486 54.9175 19.3247 56.6588 19.6023L56.8429 19.6319L57.027 19.6616C56.9708 19.7863 56.9193 19.8986 56.871 20.0031L56.8788 20.0187ZM57.2517 19.1765L56.9646 19.1375H56.9474L56.8834 19.1157L56.6104 19.0783C54.9065 18.8474 53.1777 18.6213 51.4614 18.4076C51.4973 18.3 51.5347 18.1862 51.5737 18.0567C53.2901 18.2719 55.0064 18.495 56.6619 18.7195L57.3812 18.8178C57.3391 18.9348 57.2938 19.0486 57.247 19.1656L57.2517 19.1765ZM57.5637 18.3187C55.5993 18.0988 53.6224 17.8867 51.6892 17.6871C51.7189 17.5779 51.7501 17.4625 51.7813 17.3315C53.7831 17.5374 55.7663 17.7526 57.6745 17.9663V17.9818C57.6355 18.1051 57.6012 18.2142 57.5684 18.3172L57.5637 18.3187ZM57.8212 17.4297C55.8521 17.2566 53.8502 17.0898 51.8733 16.9307C51.8967 16.8199 51.9201 16.703 51.9451 16.572C53.9563 16.7279 55.9613 16.9026 57.9086 17.0726C57.8836 17.1818 57.8555 17.2987 57.8228 17.4282L57.8212 17.4297ZM58.0193 16.5236C56.0206 16.3988 54.0016 16.2772 52.0153 16.1633C52.0325 16.0526 52.0496 15.9356 52.0668 15.8031C54.1607 15.9232 56.1844 16.0464 58.0818 16.1649C58.0599 16.3021 58.0412 16.416 58.0209 16.5236H58.0193ZM58.1551 15.6066C56.1314 15.5161 54.103 15.4428 52.1074 15.3726C52.1183 15.2619 52.1277 15.1449 52.1386 15.0108C54.3012 15.0857 56.3342 15.1667 58.1863 15.2291C58.1754 15.3664 58.1629 15.4834 58.1504 15.5894L58.1551 15.6066ZM58.23 14.6817L52.1604 14.5928C52.1604 14.4821 52.1682 14.3636 52.1698 14.231L58.2347 14.3043V14.3495C58.2347 14.454 58.2347 14.5601 58.2237 14.6614L58.23 14.6817ZM52.1713 13.813C52.1713 13.6929 52.1713 13.5713 52.162 13.4512L58.2253 13.3779V13.3966C58.2253 13.5104 58.2253 13.6243 58.2362 13.7397L57.5528 13.7491L52.1713 13.813ZM52.1386 13.0332C52.1308 12.9147 52.1199 12.793 52.1089 12.6729C54.0156 12.6074 56.0487 12.5341 58.1504 12.4546C58.166 12.5887 58.1769 12.7072 58.1863 12.8164C56.0502 12.8975 54.0172 12.9724 52.1401 13.0348L52.1386 13.0332ZM52.0606 12.2534C52.045 12.1349 52.0278 12.0132 52.0091 11.8947C53.947 11.7855 55.9754 11.6623 58.0147 11.5329C58.035 11.6405 58.0537 11.7543 58.0755 11.8916C56.0097 12.021 53.986 12.1427 52.0606 12.2534ZM51.9404 11.4845C51.9186 11.3675 51.8952 11.2474 51.8686 11.1274C53.7972 10.9714 55.7975 10.8045 57.8181 10.6283L57.8337 10.6891C57.854 10.7749 57.8789 10.8794 57.9039 10.9854C55.8537 11.1648 53.8471 11.3332 51.942 11.4861L51.9404 11.4845ZM51.7766 10.725C51.7469 10.608 51.7173 10.4879 51.6845 10.3709C53.5897 10.1744 55.5666 9.96233 57.5606 9.7393C57.5981 9.85627 57.6355 9.97324 57.6714 10.0918C55.6633 10.3179 53.6802 10.53 51.7797 10.7265L51.7766 10.725ZM51.5737 9.9904C51.5379 9.87343 51.5004 9.75646 51.4614 9.63949C53.1184 9.43206 54.8519 9.20591 56.6104 8.96885L57.2439 8.88307L57.272 8.95326C57.3079 9.04371 57.3437 9.13729 57.3781 9.22931L56.7539 9.31509L56.6603 9.32756C54.9643 9.55683 53.2526 9.77985 51.5737 9.9904ZM51.3288 9.2605C51.2866 9.14509 51.2414 9.02812 51.1962 8.91427C52.9531 8.65537 54.7739 8.3762 56.6073 8.08299L56.7446 8.06116L56.8756 8.04244C56.9365 8.16877 56.9864 8.27794 57.0317 8.384L56.6993 8.43703H56.6634C54.8863 8.72087 53.0904 8.99693 51.3272 9.25738L51.3288 9.2605ZM51.0432 8.54932C50.9933 8.43391 50.9418 8.31849 50.8872 8.20776C52.6987 7.90052 54.5711 7.57456 56.4434 7.22521C56.5277 7.38117 56.5792 7.47163 56.6276 7.56052C54.7365 7.90988 52.8579 8.24207 51.0401 8.54932H51.0432ZM50.7203 7.85841C50.6641 7.74612 50.6064 7.63383 50.5471 7.52309C52.3211 7.18466 54.1451 6.82127 55.9676 6.44384C56.0393 6.55301 56.108 6.65907 56.1766 6.77136C54.3433 7.15191 52.5084 7.51841 50.7156 7.86309L50.7203 7.85841ZM50.3614 7.18778C50.2974 7.07704 50.235 6.96943 50.1679 6.86026C51.8842 6.49531 53.663 6.10385 55.4371 5.69523C55.5151 5.79816 55.5931 5.90266 55.6664 6.00715C53.8799 6.41889 52.0933 6.81347 50.3614 7.1831V7.18778ZM49.9682 6.5421C49.898 6.43448 49.8262 6.32687 49.7529 6.22082C51.4224 5.83247 53.1403 5.41606 54.8582 4.98405C54.9658 5.10725 55.0454 5.20239 55.1187 5.29597C53.3821 5.73422 51.6502 6.15531 49.9698 6.54366L49.9682 6.5421ZM49.5438 5.91825C49.4673 5.8122 49.3878 5.70615 49.3066 5.60633C50.9153 5.19927 52.5723 4.76258 54.2341 4.30873C54.3324 4.40699 54.4244 4.50524 54.5196 4.60506C52.8298 5.07294 51.1556 5.51119 49.5438 5.92137V5.91825ZM49.0866 5.32404C49.0055 5.22423 48.9181 5.12129 48.8292 5.01212C50.3739 4.60038 51.9669 4.14341 53.5616 3.67553C53.6599 3.76287 53.7597 3.85333 53.8736 3.96094C52.2556 4.43974 50.6438 4.89671 49.0835 5.32716L49.0866 5.32404ZM48.5982 4.76726C48.5078 4.66744 48.4126 4.56607 48.319 4.46781C49.7934 4.0358 51.3179 3.57416 52.8438 3.0938C52.9593 3.18269 53.0748 3.27471 53.1887 3.36673C51.6284 3.85801 50.0883 4.32901 48.5967 4.77038L48.5982 4.76726ZM48.0833 4.22919C47.9851 4.1325 47.8836 4.03424 47.7822 3.94066C49.1865 3.50241 50.636 3.03609 52.0886 2.55105C52.2447 2.65087 52.357 2.73353 52.4631 2.80839C50.9761 3.30746 49.4985 3.7847 48.0849 4.22919H48.0833ZM47.5497 3.72232C47.4405 3.62562 47.3344 3.53361 47.2252 3.44315C48.5499 3.00646 49.9183 2.54013 51.2944 2.05509C51.4286 2.13152 51.5613 2.21106 51.7017 2.29839C50.2974 2.79747 48.8931 3.27627 47.5513 3.72388L47.5497 3.72232ZM46.9818 3.24352C46.8694 3.15306 46.7524 3.0626 46.6354 2.97527C47.8727 2.54481 49.1553 2.08629 50.4472 1.60749C50.6032 1.68079 50.7499 1.76345 50.8903 1.83207C49.5641 2.32647 48.2503 2.80059 46.9896 3.24352H46.9818ZM46.3935 2.79903C46.2703 2.71169 46.1455 2.62591 46.0206 2.54169C47.1534 2.12684 48.3424 1.68079 49.5469 1.21446C49.7029 1.27685 49.859 1.34391 50.0322 1.41877C48.7839 1.90381 47.5606 2.36858 46.3873 2.79903H46.3935ZM45.771 2.38417C45.643 2.30307 45.5089 2.22821 45.3747 2.14087C46.4154 1.74473 47.4998 1.31896 48.5982 0.877587C48.7543 0.929054 48.929 0.98676 49.1288 1.05694C47.9788 1.52483 46.8492 1.97088 45.7725 2.38417H45.771ZM45.1344 2.00363C44.9955 1.92565 44.852 1.84767 44.7084 1.77436C45.6384 1.40474 46.6135 1.01015 47.5872 0.601536C47.7682 0.643645 47.9616 0.693553 48.1785 0.757497C47.13 1.19887 46.1064 1.61996 45.1359 2.00519L45.1344 2.00363ZM44.4728 1.64804C44.3168 1.57473 44.1701 1.50299 44.0188 1.43437C44.8052 1.11621 45.6399 0.765295 46.4996 0.400346C46.7165 0.431538 46.9381 0.470528 47.1612 0.515757C46.2203 0.919697 45.3154 1.30492 44.4728 1.64804ZM43.7878 1.33611C43.6271 1.27217 43.4633 1.20667 43.301 1.14428C43.9251 0.876028 44.6054 0.582821 45.3076 0.270898C45.5791 0.288054 45.8272 0.309888 46.0659 0.337961C45.2592 0.699791 44.4931 1.03667 43.7878 1.33611ZM43.0795 1.06162C42.9078 0.999237 42.7315 0.939972 42.5568 0.883826C42.989 0.693553 43.4508 0.487684 43.9688 0.259981C44.103 0.244385 44.2731 0.244385 44.4556 0.244385C44.6023 0.244385 44.7396 0.244385 44.8722 0.244385C44.2122 0.556307 43.6271 0.818322 43.0795 1.06162ZM42.343 0.818322C42.1558 0.763735 41.9654 0.712268 41.7766 0.662361L42.343 0.400346C42.7253 0.34576 43.1185 0.30365 43.5132 0.277137L43.3712 0.34576L42.3446 0.813643L42.343 0.818322Z" fill="#1EC9EA"/>
<path d="M13.3763 27.8203C10.5334 26.532 7.55325 25.2844 4.47477 24.1224C4.25113 23.9145 4.03425 23.6977 3.82413 23.4721C7.26407 24.7478 10.7513 26.1983 14.2859 27.8234C14.1486 27.8234 14.0098 27.8234 13.8693 27.8234C13.7008 27.8296 13.5386 27.8265 13.3763 27.8203ZM3.78824 23.4409C3.61141 23.2496 3.43925 23.0541 3.27178 22.8545C7.27343 24.254 11.3406 25.8812 15.4733 27.7361C15.2221 27.7657 14.9709 27.7875 14.7166 27.8031C11.2683 26.2763 7.6063 24.7946 3.78824 23.4409ZM11.7567 27.669C9.71271 26.7332 7.60006 25.8193 5.43592 24.9475C5.12386 24.7021 4.81804 24.4422 4.51846 24.1677C7.28852 25.2584 10.0898 26.4676 12.9222 27.7953C12.529 27.7704 12.1416 27.7283 11.7567 27.669ZM3.25462 22.8342C3.10795 22.6564 2.96544 22.475 2.8271 22.2899C7.32388 23.7747 11.9159 25.537 16.5577 27.5629C16.3403 27.6066 16.1203 27.6451 15.8977 27.6784C11.9642 25.9784 7.71084 24.3205 3.25462 22.8342ZM8.81085 26.872C8.44418 26.727 8.08531 26.5601 7.7358 26.3917C6.96689 26.0079 6.23556 25.5531 5.55138 25.0333C7.43415 25.8245 9.33147 26.6735 11.2434 27.5801C10.4118 27.4201 9.59848 27.183 8.81085 26.872ZM2.81929 22.2774C2.69447 22.1105 2.57277 21.9405 2.45574 21.7674C7.39878 23.3036 12.4557 25.1611 17.5797 27.3212C17.3863 27.3758 17.1881 27.4257 16.99 27.4772C12.6149 25.6462 7.84658 23.8573 2.81929 22.2774ZM2.44638 21.7565C2.33872 21.6006 2.23418 21.4352 2.13432 21.2699C7.69207 22.9084 13.1633 24.8271 18.5268 27.0186C18.3521 27.0826 18.1758 27.1419 17.9963 27.198C13.2452 25.2844 8.00105 23.3957 2.44638 21.7565ZM2.13432 21.2621C2.0407 21.1062 1.94865 20.9502 1.85971 20.7942C7.81312 22.4447 13.6773 24.4016 19.4287 26.6568C19.2696 26.7275 19.1083 26.7956 18.945 26.8611C13.8569 24.8913 8.17269 22.9371 2.13432 21.2621ZM1.85659 20.7942C1.77389 20.6383 1.6912 20.4932 1.61162 20.3404C7.93391 21.9836 14.1659 23.9561 20.2822 26.2498C20.1371 26.3262 19.9904 26.4057 19.8406 26.4728C14.4482 24.4749 8.35524 22.4771 1.85347 20.7896L1.85659 20.7942ZM1.61162 20.3404C1.53777 20.1948 1.46599 20.0461 1.3963 19.8975C1.32661 19.7488 1.26055 19.6048 1.19814 19.4654C1.14197 19.3272 1.08684 19.1873 1.03275 19.0459C0.979699 18.9102 0.929769 18.773 0.876719 18.6357C0.823669 18.4985 0.787782 18.369 0.745654 18.2349C0.705086 18.107 0.666079 17.9791 0.628631 17.8497C9.55668 19.2767 17.7592 21.0906 24.5012 22.7937C24.4154 22.8981 24.3296 22.9995 24.2422 23.1056C17.5813 21.4228 9.52547 19.6432 0.753455 18.2349C8.2429 19.5512 16.021 21.3105 23.9052 23.4752C23.8116 23.575 23.7164 23.6733 23.6197 23.7715C17.1226 21.9951 9.33979 20.1298 0.895443 18.6404C8.14148 20.0285 15.6465 21.8672 23.2639 24.1178C23.1609 24.2145 23.0564 24.308 22.9519 24.4016C16.6295 22.5426 9.14476 20.6055 1.04211 19.0459C8.31029 20.5713 15.4968 22.4624 22.5743 24.712C22.4619 24.804 22.3465 24.8945 22.231 24.9849C16.1084 23.0603 8.94036 21.0859 1.20906 19.4654C8.18364 21.0441 15.0722 22.9811 21.8472 25.2688C21.7239 25.3561 21.6006 25.4419 21.4743 25.5261C15.5763 23.5579 8.74064 21.5413 1.39318 19.8928C8.05629 21.5119 14.6304 23.4771 21.0889 25.7803C20.9547 25.863 20.8189 25.9441 20.6832 26.0221C14.4243 23.8079 8.05803 21.9096 1.6085 20.3341L1.61162 20.3404ZM0.628631 17.8434C0.592224 17.7093 0.557898 17.5809 0.525651 17.4582C9.74079 18.787 18.1851 20.4901 25.0583 22.0747C24.9803 22.1823 24.9022 22.2868 24.8242 22.3866C18.0244 20.827 9.70178 19.152 0.625511 17.8372L0.628631 17.8434ZM0.524091 17.4535C0.492885 17.3288 0.463239 17.204 0.436714 17.0777C9.91242 18.2973 18.5783 19.8725 25.5576 21.3229C25.4889 21.4321 25.4203 21.5413 25.3485 21.6505C18.4332 20.2078 9.87498 18.6544 0.522531 17.4473L0.524091 17.4535ZM0.433594 17.0683C0.405508 16.9451 0.380543 16.8203 0.355579 16.6956C10.07 17.7967 18.9372 19.2284 26.0163 20.5338C25.9554 20.6461 25.8962 20.7568 25.8322 20.8691C18.8061 19.5684 10.0357 18.1538 0.432033 17.0621L0.433594 17.0683ZM25.9913 20.0129C18.9185 18.8759 10.0591 17.6423 0.352458 16.6815C0.329054 16.5583 0.307209 16.4351 0.286925 16.3119C10.0435 17.268 18.9466 18.5141 26.0491 19.651L26.4173 19.7103C26.3658 19.8257 26.3128 19.9396 26.2613 20.0503L25.9913 20.0129ZM25.9913 19.1286C18.9029 18.1694 10.0185 17.1167 0.283805 16.3088C0.263521 16.1871 0.244797 16.0639 0.229194 15.9407C10.0045 16.7502 18.9294 17.8123 26.0428 18.7699L26.7621 18.8681C26.7184 18.9851 26.6747 19.0989 26.6279 19.2159L25.9913 19.1286ZM0.230755 15.9267C0.213591 15.8097 0.199548 15.6881 0.185506 15.5649C10.0154 16.2324 19.2118 17.1245 27.0508 18.0041C27.0164 18.1226 26.979 18.238 26.9416 18.355C19.1416 17.4863 9.99356 16.5958 0.230755 15.9267ZM0.185506 15.5524C0.173023 15.4354 0.160541 15.3153 0.151179 15.1937C10.0856 15.7177 19.3866 16.4195 27.2833 17.112C27.2567 17.2321 27.2286 17.3491 27.1974 17.4676C19.3304 16.7798 10.0731 16.0826 0.185506 15.5571V15.5524ZM0.151179 15.1859C0.140257 15.0642 0.132456 14.9441 0.126214 14.8225C10.1433 15.1999 19.5161 15.7068 27.458 16.2059C27.4393 16.3259 27.419 16.446 27.3972 16.5646C19.4755 16.067 10.1324 15.5633 0.151179 15.1859ZM0.126214 14.8147C0.126214 14.6946 0.115292 14.5729 0.110611 14.4529C10.1792 14.6806 19.5988 14.9862 27.5719 15.2872C27.561 15.4073 27.5485 15.5274 27.536 15.6475C19.5738 15.3481 10.1746 15.0424 0.126214 14.8147ZM0.10593 14.4466C0.10593 14.3265 0.10593 14.2049 0.10593 14.0848C10.198 14.1612 19.6362 14.2626 27.6172 14.364C27.6172 14.484 27.6172 14.6057 27.6047 14.7258C19.6284 14.6244 10.1964 14.523 0.10593 14.4466ZM0.10593 13.7152C10.1917 13.6387 19.6237 13.5374 27.6 13.4375C27.6 13.5576 27.6094 13.6777 27.6125 13.7994C19.6362 13.8992 10.198 14.0006 0.10593 14.077C0.10593 13.9569 0.10593 13.8352 0.10593 13.7152ZM0.121533 13.3455C10.1746 13.1194 19.5738 12.8075 27.5298 12.5127C27.5438 12.6328 27.5563 12.7529 27.5657 12.873C19.5972 13.174 10.1777 13.4797 0.10437 13.7074C0.115292 13.5873 0.118413 13.4656 0.126214 13.3455H0.121533ZM0.146498 12.9759C10.1324 12.5985 19.4708 12.0932 27.3909 11.5972C27.4128 11.7173 27.433 11.8374 27.4518 11.9559C19.5098 12.4534 10.1324 12.9603 0.119973 13.3393C0.132456 13.2161 0.140257 13.096 0.151179 12.9743L0.146498 12.9759ZM0.180825 12.6047C10.0685 12.0807 19.3273 11.382 27.1943 10.6926C27.2255 10.8112 27.2521 10.9297 27.2801 11.0482C19.3866 11.7407 10.0919 12.4425 0.151179 12.9634C0.160541 12.8449 0.173023 12.7248 0.185506 12.6032L0.180825 12.6047ZM0.230755 12.2304C9.99356 11.5598 19.1416 10.6802 26.9431 9.80521C26.9821 9.92218 27.018 10.0392 27.0523 10.1561C19.2118 11.0373 10.0092 11.9278 0.185506 12.5954C0.199548 12.4737 0.213591 12.3521 0.230755 12.2304ZM0.286925 11.8577C10.0216 11.0498 18.9076 10.0002 25.9976 9.03632L26.6311 8.95054C26.6779 9.06595 26.7215 9.18136 26.7652 9.29833L26.0459 9.39659C18.931 10.3589 10.0076 11.4147 0.232315 12.2242C0.247918 12.1025 0.261961 11.9793 0.286925 11.8577ZM0.354018 11.4802C10.0607 10.5257 18.9216 9.28586 25.9913 8.15358L26.2613 8.10991C26.3159 8.2222 26.3689 8.33605 26.4173 8.45146L26.0491 8.50917C18.9481 9.64769 10.0435 10.8938 0.286925 11.8499C0.307209 11.7251 0.329054 11.6019 0.352458 11.4787L0.354018 11.4802ZM0.432033 11.0919C10.0357 10.0002 18.8061 8.59651 25.8322 7.29735C25.8962 7.40653 25.9554 7.51882 26.0163 7.63267C18.9356 8.93806 10.0685 10.3698 0.354018 11.4709C0.378983 11.3461 0.403948 11.2213 0.432033 11.0919ZM0.522531 10.7067C9.87498 9.49952 18.4317 7.94615 25.3532 6.50975C25.4249 6.61736 25.4936 6.72653 25.5622 6.83727C18.5768 8.29394 9.90774 9.86915 0.432033 11.0919C0.460119 10.9624 0.491325 10.8377 0.522531 10.7129V10.7067ZM0.627071 10.3152C9.70178 9.00981 18.0229 7.33322 24.8227 5.77049C24.9022 5.87499 24.9787 5.98104 25.0567 6.08241C18.1836 7.67166 9.73923 9.37632 0.525651 10.7035C0.556857 10.5757 0.589624 10.4493 0.625511 10.3214L0.627071 10.3152ZM0.745654 9.92686C0.787782 9.79273 0.833031 9.6586 0.87984 9.52448C0.926649 9.39035 0.978139 9.24999 1.03587 9.1143C1.08788 8.97705 1.14197 8.83773 1.19814 8.69632H1.21374C8.9466 7.07745 16.1146 5.09674 22.2388 3.17218C22.3543 3.26108 22.4697 3.35153 22.5821 3.44511C15.5021 5.69492 8.31292 7.58602 1.04211 9.11118C9.14007 7.55157 16.6264 5.61921 22.9472 3.76015C23.0533 3.85373 23.1578 3.94887 23.2592 4.044C15.6497 6.29452 8.14304 8.12863 0.897003 9.52136C9.33979 8.03193 17.1241 6.16507 23.6212 4.39024C23.718 4.48693 23.8131 4.58675 23.9068 4.68656C16.021 6.84974 8.24758 8.60899 0.753455 9.9253C9.52391 8.52165 17.5875 6.73745 24.2454 5.05931C24.3327 5.16068 24.4201 5.26362 24.5044 5.37123C17.7592 7.07121 9.55668 8.88504 0.628631 10.3121C0.666079 10.1826 0.705086 10.0532 0.745654 9.92686ZM1.39318 8.26743C8.74064 6.61112 15.5748 4.60234 21.4821 2.63099C21.6084 2.71521 21.7317 2.80099 21.855 2.88833C15.08 5.1765 8.19146 7.11403 1.21686 8.6932H1.20126C1.26263 8.5518 1.32661 8.40988 1.39318 8.26743ZM1.6085 7.82606C8.058 6.24992 14.4242 4.35104 20.6832 2.1366C20.8205 2.21458 20.9562 2.29256 21.0889 2.37834C14.6304 4.68202 8.05629 6.64772 1.39318 8.26743C1.46287 8.11979 1.53465 7.97266 1.6085 7.82606ZM1.85347 7.36909C7.93919 5.77801 13.9414 3.88331 19.8375 1.69211C19.9935 1.76385 20.1324 1.84027 20.2791 1.91513C14.1628 4.20877 7.93079 6.18125 1.6085 7.8245C1.68808 7.67166 1.77077 7.51882 1.85347 7.36909ZM2.1312 6.90121C8.17269 5.22307 13.8569 3.26888 18.945 1.29909C19.1083 1.36459 19.2696 1.43269 19.4287 1.50339C13.6763 3.75928 7.81108 5.71661 1.85659 7.36754C1.94397 7.20845 2.03602 7.05249 2.13432 6.89809L2.1312 6.90121ZM2.44326 6.40837C8.00106 4.76454 13.2452 2.87741 17.9979 0.963769C18.1758 1.01991 18.3537 1.08074 18.5284 1.14312C13.1643 3.33419 7.69256 5.25237 2.13432 6.89029C2.2373 6.72497 2.34028 6.56901 2.44638 6.40525L2.44326 6.40837ZM2.81305 5.8859C7.84503 4.3029 12.6149 2.51402 16.99 0.687717C17.1881 0.732946 17.3847 0.784413 17.5797 0.843679C12.4542 3.00062 7.39722 4.85344 2.45418 6.39434C2.57121 6.22122 2.69291 6.05122 2.81773 5.88278L2.81305 5.8859ZM3.25306 5.32132C7.70928 3.83969 11.9642 2.18183 15.904 0.486528C16.1255 0.51876 16.3455 0.55723 16.564 0.601939C11.9159 2.62943 7.32388 4.3918 2.83334 5.87499C2.9644 5.68627 3.10795 5.5038 3.25306 5.32132ZM3.78668 4.71464C7.60474 3.36089 11.2683 1.87926 14.7088 0.347722C14.9631 0.363318 15.2159 0.385153 15.4671 0.414785C11.3469 2.27176 7.28124 3.9026 3.27022 5.30729C3.43769 5.1087 3.61037 4.91271 3.78824 4.71931L3.78668 4.71464ZM4.47477 4.03776C7.55325 2.87429 10.5334 1.6266 13.3763 0.339924C13.5386 0.330566 13.7008 0.330566 13.8631 0.330566C14.0254 0.330566 14.1486 0.330566 14.2797 0.330566C10.7493 1.9588 7.26199 3.41132 3.81789 4.68812C4.02801 4.46354 4.24697 4.24675 4.47477 4.03776ZM5.44216 3.21429C7.59538 2.34247 9.71115 1.42229 11.7551 0.486528C12.139 0.427262 12.528 0.384633 12.9222 0.358639C10.0929 1.69159 7.29164 2.90237 4.51846 3.99098C4.8118 3.71856 5.1171 3.45967 5.43436 3.21429H5.44216ZM7.73424 1.76853L8.80929 1.28817C9.59697 0.977715 10.4118 0.741194 11.2434 0.581664C9.33147 1.48624 7.43207 2.33519 5.54514 3.12851C6.23074 2.60783 6.96365 2.15252 7.73424 1.76853ZM7.73424 1.76853L8.80929 1.28817C8.44262 1.43321 8.08531 1.59541 7.73424 1.76853Z" fill="#1EC9EA"/>
<path d="M32.0425 27.7995C31.8865 27.7995 31.7148 27.7995 31.5557 27.7901C29.9298 27.054 28.279 26.3397 26.6439 25.6675C26.7624 25.5926 26.8873 25.5115 27.0261 25.4164C28.8298 26.1634 30.6569 26.9635 32.4591 27.7932H32.2875L32.0425 27.7995ZM32.896 27.7729C30.9643 26.9214 29.0296 26.1057 27.126 25.3524C27.2383 25.2744 27.3569 25.1965 27.4895 25.092C29.5257 25.9076 31.5994 26.7873 33.6543 27.709C33.4 27.7386 33.1519 27.7605 32.896 27.7761V27.7729ZM31.0938 27.7729C30.7038 27.7464 30.3137 27.7043 29.9298 27.6451C28.6816 27.0711 27.4084 26.5097 26.1477 25.9731C26.2741 25.8998 26.4051 25.8172 26.5518 25.7314C28.0528 26.3755 29.5803 27.0602 31.0938 27.7698V27.7729ZM34.0849 27.6482C31.9192 26.7124 29.7348 25.8265 27.5941 25.0093C27.7002 24.9282 27.8125 24.8409 27.9389 24.7395C30.1857 25.6051 32.4763 26.5455 34.7465 27.5343C34.4953 27.5842 34.2768 27.6201 34.0849 27.6482ZM29.404 27.5484C28.5742 27.3876 27.7609 27.1506 26.9746 26.8403C26.6298 26.7046 26.2772 26.5471 25.8965 26.3599L25.6593 26.2367C25.7826 26.1728 25.9152 26.101 26.065 26.0153C27.1837 26.5097 28.3071 27.0259 29.4087 27.5468L29.404 27.5484ZM35.1771 27.4423C32.7992 26.4442 30.4042 25.5084 28.0512 24.6475C28.1527 24.5633 28.2603 24.4728 28.3789 24.3683C30.8145 25.2682 33.3001 26.2508 35.7654 27.291C35.536 27.3534 35.3488 27.4018 35.1756 27.447L35.1771 27.4423ZM36.1882 27.1663C33.6168 26.1322 31.0345 25.159 28.4928 24.2607C28.588 24.1749 28.6894 24.0813 28.8049 23.9737C31.4153 24.8955 34.0771 25.9076 36.7172 26.9822C36.5284 27.0508 36.3598 27.107 36.1867 27.1616L36.1882 27.1663ZM37.1369 26.8294C34.3986 25.7704 31.6368 24.7722 28.925 23.8661C29.0155 23.7772 29.1107 23.6821 29.2183 23.5698C31.9926 24.5056 34.8198 25.5318 37.6221 26.6266C37.4224 26.714 37.2726 26.781 37.1369 26.8294ZM38.0325 26.4348C35.1303 25.3618 32.2063 24.3543 29.3385 23.4419C29.4259 23.3483 29.5164 23.2501 29.6147 23.1378C32.534 24.0735 35.5142 25.106 38.4741 26.2102L38.4366 26.2289L38.4194 26.2383C38.2931 26.3038 38.162 26.3708 38.0325 26.4332V26.4348ZM38.8797 25.9887C35.834 24.9157 32.7571 23.9098 29.7364 23.0005C29.8175 22.9054 29.9033 22.804 29.9969 22.6886C33.0583 23.6166 36.1851 24.6459 39.2885 25.7454C39.1231 25.8484 38.9983 25.9217 38.8813 25.9887H38.8797ZM39.6802 25.4943C36.4909 24.4291 33.272 23.4357 30.1155 22.5404C30.1904 22.4453 30.2716 22.3424 30.3574 22.2285C33.5544 23.1409 36.817 24.1546 40.0531 25.2417L40.0188 25.2682L39.6802 25.499V25.4943ZM40.4369 24.9516C37.1213 23.9082 33.7713 22.9366 30.476 22.0601C30.5462 21.9634 30.6195 21.8573 30.7006 21.7372C34.0256 22.6262 37.4099 23.6088 40.7802 24.6787L40.671 24.766L40.4354 24.95L40.4369 24.9516ZM41.1515 24.3636C37.7079 23.3514 34.2316 22.4079 30.8192 21.5563C30.8863 21.455 30.955 21.3473 31.0283 21.2273C34.4719 22.085 37.9841 23.0426 41.4667 24.072C41.3684 24.164 41.2608 24.2607 41.1547 24.3558L41.1515 24.3636ZM41.8225 23.7398C38.265 22.7681 34.6716 21.8683 31.1406 21.0541C31.1999 20.9559 31.2623 20.8467 31.3326 20.7204C34.8869 21.5392 38.5099 22.4562 42.108 23.4435C42.0253 23.5324 41.9332 23.6275 41.8225 23.7398ZM42.4466 23.0676C38.7799 22.1381 35.0757 21.2818 31.4324 20.5176C31.4855 20.4178 31.5416 20.3102 31.6056 20.1839C35.2832 20.9637 39.0155 21.8246 42.7009 22.7557C42.6182 22.857 42.534 22.9569 42.4419 23.0676H42.4466ZM43.0255 22.3549C39.2667 21.4908 35.4627 20.6892 31.718 19.9718C31.7679 19.8688 31.8194 19.7581 31.874 19.6333C35.6562 20.3585 39.4867 21.168 43.2642 22.0367C43.2033 22.1209 43.1425 22.202 43.0816 22.2847L43.0629 22.3112L43.0301 22.3549H43.0255ZM43.556 21.6062C39.7098 20.8077 35.8122 20.0685 31.9738 19.4072C32.0175 19.3027 32.0643 19.192 32.1143 19.0641C35.9869 19.7316 39.908 20.4771 43.7666 21.2787C43.6917 21.3988 43.6246 21.5049 43.5575 21.6047L43.556 21.6062ZM44.0365 20.8264C40.1015 20.1012 36.1196 19.4228 32.2032 18.8332C32.2422 18.7288 32.2828 18.6165 32.3265 18.4855C36.2834 19.089 40.284 19.7643 44.2206 20.4911C44.1504 20.6221 44.0927 20.7282 44.0365 20.8264ZM44.4641 20.0123L44.2206 19.9733H44.1957C40.284 19.3495 36.3177 18.7662 32.4076 18.2484C32.4419 18.1408 32.4778 18.0269 32.5153 17.8975C36.416 18.4153 40.3714 18.9892 44.255 19.6131L44.4469 19.6427L44.6248 19.6708C44.567 19.8002 44.5155 19.9078 44.4687 20.0123H44.4641ZM44.837 19.1717L44.358 19.1062H44.3439L44.2004 19.0875C40.3511 18.5666 36.4441 18.0815 32.5855 17.6479C32.6151 17.5403 32.6448 17.4249 32.676 17.2939C36.5362 17.729 40.4307 18.211 44.2519 18.7288L44.45 18.7553H44.4719L44.9712 18.8239C44.929 18.9393 44.8838 19.0532 44.837 19.1717ZM45.149 18.3139C40.9939 17.846 36.8186 17.4202 32.7353 17.0428C32.7587 16.9352 32.7836 16.8182 32.8102 16.6857C36.9184 17.0662 41.1063 17.4967 45.2598 17.963C45.2255 18.0784 45.1865 18.1969 45.149 18.3139ZM45.4065 17.4249C41.1937 17.0569 36.9808 16.72 32.8585 16.4221C32.8773 16.3129 32.8975 16.1959 32.9163 16.0634C37.0807 16.3644 41.3107 16.7028 45.4923 17.0693C45.4564 17.2253 45.4314 17.3298 45.4065 17.4249ZM45.6046 16.5188C41.3747 16.2536 37.1182 16.0104 32.9537 15.7951C32.9678 15.6828 32.9818 15.5674 32.9958 15.4349C37.1977 15.6516 41.4605 15.9027 45.6686 16.1601C45.6514 16.2708 45.6312 16.3878 45.6078 16.5188H45.6046ZM45.7404 15.6017C41.4932 15.4458 37.2133 15.2898 33.0208 15.165C33.0302 15.0543 33.038 14.9358 33.0458 14.8032C37.2882 14.9342 41.5713 15.0824 45.7778 15.2415C45.7653 15.374 45.7544 15.4926 45.7419 15.6017H45.7404ZM45.8153 14.6769C41.6259 14.6239 37.3335 14.5739 33.0583 14.5303C33.0583 14.4195 33.0583 14.301 33.0661 14.1669C37.4614 14.2121 41.7554 14.262 45.8278 14.3135C45.8278 14.4554 45.8278 14.5693 45.8153 14.6738V14.6769ZM33.0661 13.8971C33.0661 13.777 33.0661 13.6553 33.0583 13.5352C37.1275 13.4931 41.4199 13.4448 45.8168 13.3886C45.8168 13.5259 45.8278 13.6429 45.8293 13.7505C41.5057 13.8051 37.2133 13.8534 33.0692 13.8971H33.0661ZM33.0395 13.2498C33.0395 13.1297 33.0239 13.0081 33.0146 12.8896C37.1166 12.7617 41.3965 12.6151 45.7357 12.4529C45.7482 12.5667 45.7607 12.6837 45.7731 12.8131C41.4901 12.9691 37.2071 13.1251 33.0411 13.2514L33.0395 13.2498ZM32.9927 12.6182C32.9802 12.4965 32.9678 12.3796 32.9522 12.2579C37.0869 12.0443 41.3435 11.801 45.6031 11.5327C45.628 11.6668 45.6483 11.7838 45.6639 11.893C41.3949 12.1612 37.1322 12.4045 32.9927 12.6182ZM32.9147 11.9943C32.8975 11.8758 32.8773 11.7557 32.857 11.6356C36.9684 11.3393 41.189 11.0009 45.4065 10.6328C45.4361 10.7467 45.4626 10.8605 45.4923 10.99C41.2514 11.3611 37.0214 11.698 32.9178 11.9959L32.9147 11.9943ZM32.8086 11.3705C32.7852 11.252 32.7602 11.1319 32.7337 11.0149C36.8014 10.6375 40.9783 10.2102 45.1475 9.74227C45.1912 9.87328 45.227 9.98869 45.2582 10.0947C41.072 10.5626 36.8841 10.9946 32.8102 11.3721L32.8086 11.3705ZM32.6807 10.7623C32.651 10.6422 32.6214 10.5236 32.5902 10.4082C36.4113 9.97777 40.3199 9.49429 44.2066 8.9687L44.8401 8.88136C44.8838 8.99054 44.929 9.10595 44.9758 9.23072L44.255 9.32897C40.4151 9.84832 36.5206 10.3302 32.6807 10.7623ZM32.5246 10.1587C32.4903 10.0433 32.4544 9.92474 32.417 9.80777C36.3099 9.29154 40.2746 8.71605 44.2035 8.08284L44.4609 8.04073C44.5187 8.1577 44.5717 8.27312 44.617 8.38229L44.4313 8.41192L44.255 8.43999C40.3636 9.06384 36.4145 9.6409 32.5168 10.1556L32.5246 10.1587ZM32.3374 9.56448C32.2984 9.4475 32.2563 9.33053 32.2141 9.21668C36.1149 8.62247 40.0921 7.9534 44.0475 7.22506C44.1114 7.33579 44.1738 7.4512 44.2316 7.56037C40.27 8.29183 36.2725 8.96402 32.3374 9.56448ZM32.1236 8.9843C32.0784 8.87045 32.0316 8.75504 31.9832 8.64118C35.8013 7.98147 39.702 7.24377 43.5528 6.44213C43.6246 6.5513 43.6933 6.65892 43.7619 6.76965C39.883 7.57597 35.9604 8.3199 32.1111 8.9843H32.1236ZM31.8849 8.41504C31.835 8.30119 31.7819 8.18734 31.7289 8.0766C35.458 7.3623 39.262 6.56222 43.0364 5.69508C43.1316 5.82141 43.2049 5.91966 43.272 6.007C39.4742 6.88194 35.6437 7.68982 31.8818 8.41036L31.8849 8.41504ZM31.6228 7.86138C31.5666 7.74909 31.5089 7.63679 31.4496 7.52762C35.0835 6.76185 38.783 5.90563 42.4559 4.98078C42.5511 5.08995 42.6447 5.2038 42.7165 5.2927C39.0139 6.22847 35.2817 7.09249 31.6228 7.8645V7.86138ZM31.3404 7.32799C31.2779 7.21726 31.214 7.10497 31.1484 6.99579C34.6732 6.18792 38.2665 5.28022 41.8303 4.31014C41.9301 4.4084 42.0269 4.50977 42.1158 4.60647C38.4865 5.59994 34.8651 6.51543 31.3294 7.32955L31.3404 7.32799ZM31.0283 6.80708C30.9565 6.69791 30.8863 6.58718 30.8083 6.48112C34.2098 5.63893 37.6861 4.69693 41.1406 3.67382C41.253 3.77208 41.3591 3.86877 41.4527 3.95923C37.9623 4.99949 34.45 5.95553 31.0252 6.80864L31.0283 6.80708ZM30.6991 6.30645C30.6242 6.19727 30.543 6.0881 30.4728 5.98361C33.7495 5.11178 37.1041 4.14015 40.4338 3.09365C40.5493 3.18098 40.6647 3.273 40.7786 3.36658C37.399 4.43179 34.0069 5.42059 30.6991 6.30645ZM30.3542 5.81985C30.2747 5.71223 30.1982 5.60618 30.1124 5.50792C33.258 4.60959 36.4753 3.61768 39.6755 2.54934C39.8159 2.64292 39.9376 2.72714 40.0484 2.80668C36.7983 3.89841 33.5373 4.91215 30.3542 5.81985ZM29.9923 5.35196C29.908 5.24903 29.8222 5.14454 29.7332 5.04004C32.7431 4.14171 35.8184 3.13108 38.8751 2.05339C39.0139 2.13293 39.1512 2.20935 39.2823 2.29668C36.1617 3.40245 33.0411 4.43023 29.9938 5.35196H29.9923ZM29.6115 4.9028C29.5226 4.80298 29.4306 4.70005 29.3354 4.60023C32.1907 3.69098 35.1085 2.68503 38.0278 1.60734C38.1651 1.6744 38.3055 1.74614 38.4694 1.83192C35.4892 2.94236 32.509 3.97483 29.6115 4.9028ZM29.2168 4.47546C29.1216 4.37565 29.0233 4.27583 28.9235 4.17914C31.629 3.273 34.397 2.27017 37.1338 1.21431C37.3023 1.28294 37.4661 1.35156 37.619 1.42018C34.7995 2.51971 31.9723 3.54593 29.2168 4.47546ZM28.8049 4.06372C28.7034 3.96703 28.6005 3.87033 28.4928 3.77676C31.0221 2.89402 33.609 1.91614 36.1851 0.877438C36.3552 0.932024 36.533 0.991289 36.7156 1.05679C34.0631 2.13604 31.3965 3.14823 28.8049 4.06372ZM28.3805 3.67382C28.2712 3.57869 28.162 3.48511 28.0528 3.39465C30.3917 2.53686 32.7868 1.59798 35.1771 0.601386C35.3566 0.643496 35.5501 0.691844 35.7669 0.757348C33.2829 1.80229 30.7989 2.78172 28.382 3.67382H28.3805ZM27.942 3.30419C27.8297 3.21374 27.7142 3.12172 27.5972 3.03438C29.7254 2.22026 31.9083 1.3344 34.0849 0.398637C34.3315 0.436068 34.553 0.473498 34.7465 0.514048C32.4591 1.50752 30.1701 2.44797 27.9436 3.30575L27.942 3.30419ZM27.4911 2.95328C27.3678 2.86126 27.2477 2.77549 27.1275 2.69283C29.0186 1.94265 30.9643 1.12854 32.8944 0.270749C33.1659 0.287905 33.414 0.309739 33.6543 0.337812C31.5806 1.27358 29.5054 2.14696 27.4911 2.95328ZM27.023 2.6242C26.9075 2.53998 26.7734 2.45576 26.6454 2.37467C28.2494 1.71339 29.9018 1.00065 31.5541 0.253593C31.7008 0.242676 31.8709 0.242676 32.0425 0.242676C32.1782 0.242676 32.3155 0.242676 32.4482 0.242676H32.4591C30.6273 1.09266 28.8002 1.89119 27.0277 2.62576L27.023 2.6242ZM26.5549 2.31228C26.4223 2.2343 26.2834 2.1532 26.1508 2.07522C27.385 1.54963 28.6566 0.98973 29.9298 0.398637C30.309 0.339372 30.7022 0.297262 31.0985 0.269189C29.5694 0.994409 28.0403 1.68064 26.5549 2.31696V2.31228ZM26.0681 2.02843C25.9355 1.95825 25.7997 1.87871 25.6593 1.80229L25.7779 1.74614L25.9011 1.68532C26.2616 1.50596 26.6236 1.34376 26.9778 1.2034C27.767 0.892484 28.5834 0.655447 29.4165 0.495333C28.2806 1.03184 27.1525 1.54807 26.0681 2.02843Z" fill="#1EC9EA"/>
<path d="M13.7305 38.6485V40.2595C14.8294 40.2508 15.9238 40.3995 16.9806 40.7009C17.9293 40.9667 18.817 41.4149 19.5941 42.0203C20.3302 42.6047 20.9254 43.3473 21.3354 44.1929C21.7769 45.1349 21.9948 46.1661 21.972 47.206C21.9978 48.2415 21.7842 49.2689 21.3479 50.2083C20.9414 51.0456 20.3458 51.7771 19.6081 52.345C18.8277 52.9355 17.9401 53.3692 16.9946 53.6223C15.9317 53.9126 14.8339 54.0553 13.732 54.0465V55.7527H12.5181V54.0449C11.4117 54.0534 10.3093 53.9107 9.24148 53.6207C8.29002 53.3664 7.39566 52.9335 6.60613 52.345C5.86088 51.7796 5.25817 51.0479 4.84611 50.2083C4.39973 49.2688 4.17958 48.238 4.20327 47.1982C4.18087 46.1556 4.40093 45.122 4.84611 44.1788C5.25947 43.33 5.86147 42.5869 6.60613 42.0063C7.3931 41.4042 8.28821 40.9584 9.24304 40.6931C10.3088 40.3915 11.4121 40.2428 12.5197 40.2517V38.6407L13.7305 38.6485ZM13.7305 52.8986C14.6424 52.9059 15.5512 52.7915 16.4329 52.5586C17.2162 52.3558 17.9527 52.003 18.6017 51.5199C19.2163 51.0523 19.7105 50.4449 20.0434 49.7482C20.409 48.9516 20.5878 48.0822 20.5661 47.206C20.5872 46.3204 20.4085 45.4414 20.0434 44.6342C19.7114 43.927 19.2175 43.3078 18.6017 42.8267C17.9554 42.3326 17.2186 41.9697 16.4329 41.7583C15.5526 41.5172 14.6432 41.3986 13.7305 41.4058V52.8986ZM12.5166 41.4058C11.5956 41.3986 10.678 41.5172 9.78914 41.7583C8.99481 41.9707 8.24925 42.3351 7.5938 42.8313C6.9715 43.3106 6.47112 43.9299 6.13336 44.6389C5.76773 45.4416 5.58851 46.3165 5.6091 47.1982C5.58741 48.075 5.76842 48.945 6.13804 49.7404C6.47405 50.4413 6.97324 51.0516 7.5938 51.5199C8.25135 52.0031 8.99555 52.3557 9.78602 52.5586C10.6762 52.7916 11.5933 52.9059 12.5134 52.8986L12.5166 41.4058ZM36.1957 38.7685L43.9488 55.5359H42.5914L39.9389 49.7654H31.7395L29.087 55.5359H27.7217L35.4764 38.767L36.1957 38.7685ZM39.4396 48.6986L35.8228 40.8693L32.2341 48.6986H39.4396ZM52.4259 38.8886H61.0185V39.9632H52.4275V46.0972H56.1519C57.0099 46.0814 57.8651 46.1982 58.6874 46.4434C59.3446 46.6398 59.9554 46.9665 60.4833 47.4041C60.9509 47.8018 61.3172 48.3048 61.5521 48.8717C61.7937 49.4685 61.914 50.1073 61.9063 50.751C61.9129 51.4118 61.7733 52.0657 61.4975 52.6662C61.2243 53.2522 60.824 53.7701 60.3257 54.1822C59.7798 54.6283 59.1539 54.9665 58.4815 55.1788C57.693 55.4279 56.8696 55.549 56.0427 55.5375H51.1262V38.8637H52.4244L52.4259 38.8886ZM52.4259 47.1842V54.4645H55.8976C56.6656 54.488 57.4313 54.3707 58.1569 54.1182C58.6838 53.9269 59.1629 53.6236 59.5612 53.2293C59.8976 52.8941 60.1499 52.4842 60.2977 52.033C60.43 51.62 60.4989 51.1894 60.5021 50.7557C60.5004 50.324 60.4314 49.8951 60.2977 49.4846C60.1547 49.0479 59.9047 48.6539 59.5706 48.3383C59.1661 47.9661 58.6875 47.6834 58.1663 47.5086C57.4372 47.2728 56.673 47.1636 55.907 47.1858L52.4259 47.1842ZM70.8531 38.8652H75.4778C76.3303 38.846 77.1802 38.9651 77.9946 39.2177C78.6189 39.4133 79.1959 39.7362 79.6891 40.166C80.1166 40.5508 80.4461 41.032 80.6502 41.5696C80.8575 42.1124 80.9632 42.6886 80.9623 43.2696C80.9604 43.8151 80.8714 44.3569 80.6986 44.8744C80.5172 45.4199 80.2061 45.9134 79.7921 46.3124C79.2991 46.7736 78.7142 47.1254 78.0757 47.3449C77.2032 47.6355 76.2864 47.7706 75.3671 47.7441H72.1528V55.5422H70.8547L70.8531 38.8652ZM72.1513 39.9398V46.6711H75.2719C75.944 46.6868 76.6146 46.5984 77.2597 46.4091C77.7477 46.2631 78.1999 46.0172 78.5875 45.687C78.9209 45.396 79.1767 45.0268 79.3318 44.6124C79.4861 44.1898 79.5632 43.7429 79.5596 43.293C79.5619 42.8528 79.4826 42.416 79.3255 42.0047C79.1678 41.5963 78.9166 41.2305 78.5922 40.9364C78.2209 40.6075 77.7852 40.3595 77.3127 40.2081C76.7029 40.0158 76.0656 39.9252 75.4263 39.9398H72.1513ZM102.343 38.8652V55.5359H101.034V41.1657L89.4769 55.5359H88.5407V38.8637H89.8388V53.3883L101.505 38.8637L102.343 38.8652ZM112.65 38.8652V46.4683H113.323C113.705 46.4734 114.087 46.4315 114.459 46.3436C114.783 46.2637 115.09 46.1264 115.365 45.9381C115.653 45.7354 115.905 45.4855 116.11 45.1988C116.362 44.8447 116.579 44.4671 116.759 44.0712L118.308 40.7773C118.461 40.4397 118.651 40.1196 118.873 39.8228C119.047 39.5944 119.258 39.3967 119.497 39.238C119.718 39.0947 119.965 38.9956 120.224 38.9463C120.521 38.8916 120.823 38.8655 121.124 38.8684H121.713V39.9429H121.099C120.867 39.9374 120.634 39.9636 120.408 40.0209C120.235 40.0672 120.075 40.1531 119.94 40.272C119.802 40.4009 119.686 40.5523 119.598 40.7196C119.494 40.9026 119.384 41.1256 119.268 41.3887L117.97 44.2287C117.822 44.5456 117.657 44.8543 117.476 45.1536C117.302 45.4451 117.112 45.7263 116.905 45.9958C116.726 46.2313 116.53 46.4529 116.317 46.6586C116.161 46.8182 115.976 46.9459 115.771 47.0345C116.096 47.0967 116.404 47.2246 116.678 47.4104C116.971 47.6126 117.239 47.8493 117.476 48.1153C117.753 48.4238 118.008 48.7511 118.239 49.0947C118.492 49.4649 118.752 49.8647 119.02 50.2941L122.312 55.5453H120.677L117.793 50.6434C117.508 50.1422 117.184 49.6635 116.826 49.2117C116.544 48.8568 116.224 48.5345 115.871 48.251C115.575 48.0137 115.24 47.83 114.88 47.7082C114.527 47.5947 114.159 47.5384 113.788 47.5414H112.647V55.5375H111.354V38.8637L112.65 38.8652ZM136.546 38.7701L144.296 55.5359H142.939L140.286 49.7654H132.09L129.438 55.5359H128.08L135.829 38.767L136.546 38.7701ZM139.79 48.7002L136.174 40.8709L132.585 48.7002H139.79ZM181.352 54.19C180.416 54.7021 179.42 55.097 178.388 55.3659C177.413 55.6207 176.41 55.7512 175.403 55.7543C174.187 55.7665 172.981 55.5479 171.847 55.1102C170.797 54.7051 169.836 54.0991 169.018 53.326C168.218 52.5605 167.581 51.6411 167.146 50.6232C166.687 49.5525 166.456 48.3986 166.467 47.2341C166.462 46.4183 166.575 45.6062 166.804 44.823C167.02 44.0879 167.335 43.3854 167.74 42.7346C168.132 42.1036 168.61 41.5295 169.158 41.0284C169.704 40.5287 170.31 40.0977 170.96 39.7449C171.617 39.3895 172.315 39.1171 173.039 38.9339C173.775 38.7463 174.532 38.652 175.292 38.6531C176.263 38.6561 177.23 38.7702 178.175 38.9931C179.214 39.2412 180.225 39.595 181.191 40.049V41.4526C180.228 40.9409 179.214 40.5326 178.164 40.2346C177.201 39.9715 176.207 39.8388 175.209 39.84C174.212 39.8316 173.224 40.0225 172.302 40.4015C171.432 40.7573 170.642 41.2827 169.977 41.947C169.315 42.6176 168.792 43.4127 168.439 44.2865C168.061 45.2205 167.871 46.2202 167.88 47.2279C167.868 48.2429 168.058 49.2501 168.439 50.1911C168.794 51.0625 169.325 51.8511 169.999 52.5072C170.684 53.1641 171.493 53.6774 172.379 54.0169C173.341 54.3863 174.364 54.5705 175.395 54.5596C175.865 54.5598 176.334 54.528 176.799 54.4645C177.282 54.3944 177.76 54.2901 178.228 54.1526C178.741 54.0047 179.244 53.8271 179.736 53.6207C180.256 53.4055 180.798 53.1456 181.363 52.8409L181.352 54.19ZM190.024 38.8652H193.521C194.464 38.8367 195.406 38.9718 196.303 39.2645C196.94 39.4774 197.522 39.8278 198.008 40.2907C198.403 40.6784 198.698 41.1557 198.868 41.6819C199.024 42.1642 199.105 42.6676 199.108 43.1744C199.131 43.9314 198.926 44.6777 198.52 45.3174C198.047 45.9802 197.421 46.5186 196.695 46.8863C197.798 47.0557 198.818 47.5719 199.608 48.3602C200.27 49.1199 200.616 50.1044 200.575 51.1113C200.585 51.7499 200.449 52.3825 200.179 52.961C199.916 53.5118 199.527 53.9927 199.043 54.3647C198.51 54.766 197.907 55.0634 197.264 55.2412C196.508 55.4552 195.725 55.5602 194.939 55.5531H190.026L190.024 38.8652ZM191.322 39.9398V46.5884H193.125C193.851 46.6037 194.576 46.5235 195.281 46.3498C195.79 46.2234 196.268 45.9941 196.685 45.6761C197.035 45.403 197.305 45.0403 197.465 44.6264C197.626 44.1928 197.705 43.7334 197.699 43.2711C197.719 42.7184 197.597 42.1697 197.345 41.6772C197.113 41.2561 196.775 40.9025 196.365 40.651C195.913 40.3789 195.414 40.1927 194.894 40.102C194.293 39.9931 193.684 39.9409 193.073 39.9461L191.322 39.9398ZM191.322 47.6739V54.4645H194.794C195.523 54.4868 196.251 54.3812 196.944 54.1526C197.445 53.9826 197.903 53.7077 198.289 53.3462C198.603 53.0425 198.84 52.6682 198.98 52.2545C199.109 51.8778 199.176 51.4828 199.179 51.0848C199.177 50.6689 199.108 50.256 198.974 49.8621C198.826 49.4378 198.567 49.061 198.224 48.7703C197.781 48.4064 197.268 48.1382 196.716 47.9827C195.908 47.7554 195.069 47.6502 194.229 47.6708L191.322 47.6739ZM217.706 38.8652V39.9398H209.848V46.6118H217.493V47.7036H209.848V54.4707H217.897V55.5453H208.551V38.8637L217.706 38.8652ZM237.757 38.8652V39.9398H231.461V55.5359H230.152V39.9398H223.852V38.8652H237.757ZM258.734 38.8652V55.5359H257.425V41.1657L245.867 55.5359H244.931V38.8637H246.229V53.3883L257.896 38.8637L258.734 38.8652ZM274.363 38.7701L282.112 55.5391H280.754L273.967 40.9193L267.258 55.5391H265.9L273.649 38.7701H274.363ZM289.297 55.5391V38.8637H290.595V46.0956H294.319C295.177 46.0798 296.033 46.1966 296.855 46.4418C297.512 46.6382 298.123 46.9649 298.651 47.4026C299.118 47.8002 299.485 48.3032 299.72 48.8702C299.961 49.4669 300.082 50.1058 300.074 50.7495C300.08 51.4102 299.941 52.0642 299.665 52.6647C299.392 53.2507 298.992 53.7685 298.493 54.1806C297.947 54.6267 297.321 54.9649 296.649 55.1772C295.86 55.4263 295.037 55.5474 294.21 55.5359L289.297 55.5391ZM290.595 47.1842V54.4645H294.065C294.833 54.488 295.599 54.3707 296.324 54.1182C296.851 53.9269 297.33 53.6236 297.729 53.2293C298.065 52.894 298.316 52.4841 298.464 52.033C298.596 51.62 298.665 51.1894 298.668 50.7557C298.666 50.324 298.597 49.8951 298.464 49.4846C298.321 49.0479 298.071 48.6539 297.737 48.3383C297.332 47.9661 296.854 47.6834 296.332 47.5086C295.603 47.2728 294.839 47.1636 294.073 47.1858L290.595 47.1842ZM321.831 38.8652V55.5359H320.522V47.6349H309.325V55.5359H308.027V38.8637H309.325V46.5619H320.522V38.8637L321.831 38.8652ZM344.645 38.8652V55.5359H343.336V41.1657L331.778 55.5359H330.841V38.8637H332.14V53.3883L343.806 38.8637L344.645 38.8652ZM354.953 38.8652V46.4683H355.625C356.008 46.4734 356.389 46.4315 356.761 46.3436C357.085 46.2637 357.392 46.1264 357.668 45.9381C357.956 45.7354 358.207 45.4855 358.412 45.1988C358.664 44.8447 358.881 44.4671 359.061 44.0712L360.61 40.7773C360.764 40.4397 360.953 40.1196 361.175 39.8228C361.349 39.5944 361.56 39.3968 361.799 39.238C362.021 39.0947 362.268 38.9956 362.526 38.9463C362.823 38.8916 363.125 38.8655 363.427 38.8684H364.015V39.9429H363.402C363.169 39.9374 362.936 39.9636 362.711 40.0209C362.537 40.0672 362.377 40.1532 362.242 40.272C362.104 40.4009 361.989 40.5522 361.901 40.7196C361.797 40.9026 361.687 41.1256 361.57 41.3887L360.272 44.2287C360.124 44.5456 359.96 44.8543 359.779 45.1536C359.605 45.4451 359.414 45.7263 359.208 45.9958C359.029 46.2313 358.832 46.4529 358.62 46.6586C358.464 46.8182 358.278 46.9459 358.073 47.0345C358.398 47.0967 358.707 47.2246 358.98 47.4104C359.273 47.6126 359.542 47.8493 359.779 48.1153C360.055 48.4238 360.31 48.7511 360.542 49.0947C360.795 49.4649 361.055 49.8647 361.322 50.2941L364.614 55.5453H362.968L360.085 50.6512C359.799 50.15 359.476 49.6713 359.117 49.2195C358.836 48.8646 358.516 48.5423 358.162 48.2588C357.866 48.0215 357.531 47.8378 357.172 47.716C356.819 47.6025 356.45 47.5462 356.079 47.5492H354.939V55.5453H353.641V38.8637L354.953 38.8652ZM389.301 47.1982C389.31 48.3507 389.074 49.4918 388.61 50.5467C388.162 51.5665 387.519 52.489 386.717 53.262C385.902 54.0435 384.943 54.6613 383.895 55.0821C382.784 55.5295 381.596 55.7547 380.398 55.7449C379.595 55.7453 378.795 55.6405 378.019 55.433C377.277 55.238 376.563 54.9514 375.892 54.5799C375.241 54.2179 374.639 53.7728 374.102 53.2558C373.57 52.7438 373.107 52.1638 372.726 51.5308C372.342 50.8909 372.045 50.2028 371.843 49.4846C371.633 48.7391 371.528 47.968 371.531 47.1936C371.528 46.4171 371.633 45.6439 371.843 44.8963C372.045 44.1759 372.342 43.4856 372.726 42.8438C373.107 42.2108 373.57 41.6308 374.102 41.1189C374.64 40.6012 375.241 40.1541 375.892 39.7885C376.561 39.4137 377.276 39.1269 378.019 38.9354C378.796 38.7346 379.596 38.6345 380.398 38.6375C381.204 38.6341 382.008 38.7342 382.789 38.9354C383.533 39.1276 384.25 39.4143 384.921 39.7885C385.575 40.153 386.178 40.6001 386.717 41.1189C387.25 41.6319 387.714 42.2117 388.098 42.8438C388.486 43.4827 388.785 44.171 388.988 44.89C389.199 45.6411 389.305 46.418 389.301 47.1982ZM387.897 47.1982C387.906 46.201 387.711 45.2125 387.326 44.2927C386.96 43.4168 386.425 42.6218 385.752 41.9533C385.072 41.2845 384.268 40.7547 383.385 40.3937C382.453 40.0115 381.454 39.819 380.447 39.8275C379.438 39.8196 378.438 40.012 377.504 40.3937C376.616 40.7556 375.807 41.2851 375.12 41.9533C374.439 42.6207 373.896 43.4156 373.522 44.2927C373.129 45.2106 372.931 46.1999 372.94 47.1982C372.932 48.195 373.13 49.1825 373.522 50.0991C373.894 50.9773 374.437 51.7726 375.12 52.4385C375.808 53.1029 376.617 53.6296 377.504 53.9904C378.438 54.372 379.438 54.5645 380.447 54.5565C381.454 54.565 382.453 54.3725 383.385 53.9904C384.266 53.6304 385.07 53.1034 385.752 52.4385C386.427 51.7715 386.962 50.9761 387.326 50.0991C387.71 49.1806 387.905 48.1937 387.897 47.1982ZM396.61 38.8559H400.106C401.05 38.8273 401.991 38.9624 402.888 39.2551C403.525 39.4681 404.107 39.8184 404.594 40.2814C404.988 40.6691 405.283 41.1463 405.454 41.6725C405.609 42.1549 405.69 42.6582 405.694 43.1651C405.716 43.9221 405.511 44.6684 405.106 45.308C404.633 45.9709 404.006 46.5092 403.28 46.877C404.383 47.0463 405.403 47.5626 406.193 48.3508C406.855 49.1106 407.202 50.095 407.16 51.102C407.17 51.7406 407.035 52.3731 406.764 52.9517C406.501 53.5024 406.112 53.9834 405.628 54.3553C405.096 54.7566 404.492 55.054 403.85 55.2318C403.093 55.4458 402.31 55.5508 401.525 55.5437H396.608L396.61 38.8559ZM397.908 39.9305V46.5791H399.71C400.436 46.5943 401.161 46.5141 401.866 46.3405C402.376 46.214 402.853 45.9847 403.271 45.6667C403.621 45.3937 403.89 45.031 404.051 44.6171C404.211 44.1835 404.29 43.7241 404.285 43.2618C404.304 42.709 404.183 42.1604 403.931 41.6679C403.699 41.2467 403.361 40.8931 402.951 40.6416C402.498 40.3695 402 40.1834 401.479 40.0927C400.879 39.9837 400.269 39.9315 399.659 39.9367L397.908 39.9305ZM397.908 47.6646V54.4551H401.38C402.109 54.4774 402.837 54.3718 403.53 54.1432C404.03 53.9733 404.489 53.6984 404.875 53.3369C405.189 53.0332 405.426 52.6589 405.566 52.2452C405.694 51.8684 405.761 51.4735 405.764 51.0754C405.762 50.6595 405.693 50.2466 405.56 49.8527C405.411 49.4285 405.152 49.0515 404.809 48.761C404.367 48.3971 403.853 48.1289 403.302 47.9734C402.493 47.746 401.655 47.6409 400.815 47.6615L397.908 47.6646Z" fill="white"/>
</svg>
