<svg width="410" height="68" viewBox="0 0 410 68" fill="none" xmlns="http://www.w3.org/2000/svg">
<mask id="mask0_1_369" style="mask-type:luminance" maskUnits="userSpaceOnUse" x="0" y="0" width="410" height="68">
<path d="M409.87 0.962158H0V67.0078H409.87V0.962158Z" fill="white"/>
</mask>
<g mask="url(#mask0_1_369)">
<path d="M29.7779 48.5015C26.563 48.502 23.4046 47.6665 20.6197 46.0791C17.8349 44.4916 15.5216 42.208 13.9122 39.4574C12.3028 36.707 11.4539 33.5864 11.4507 30.4092C11.4475 27.2319 12.2902 24.1097 13.8941 21.3561C15.4981 18.6025 17.8068 16.3144 20.5884 14.7214C23.3701 13.1285 26.5269 12.2869 29.7417 12.2811C32.9566 12.2753 36.1165 13.1054 38.9041 14.6882C41.6916 16.271 44.0088 18.5508 45.6229 21.2985L55.5265 15.6156C52.5708 10.5827 48.1721 6.52859 42.8858 3.96572C37.5996 1.40285 31.6633 0.44619 25.8271 1.21665C19.9909 1.98711 14.5168 4.45012 10.0966 8.29439C5.67639 12.1387 2.50846 17.1916 0.993167 22.8148C-0.522124 28.4379 -0.316759 34.3788 1.58331 39.8866C3.48337 45.3944 6.99283 50.2219 11.6682 53.7589C16.3436 57.2964 21.975 59.3842 27.8508 59.7594C33.7266 60.1342 39.583 58.7796 44.6799 55.8662L38.9483 46.0681C36.1626 47.6656 32.9985 48.5052 29.7779 48.5015Z" fill="#FAFAFA"/>
<path fill-rule="evenodd" clip-rule="evenodd" d="M29.7775 1.8667C24.0693 1.8667 18.4892 3.53958 13.743 6.67382C8.99677 9.80801 5.29754 14.2628 3.11309 19.4748C0.928645 24.6868 0.357092 30.422 1.47071 35.955C2.58434 41.4881 5.33313 46.5706 9.36945 50.5598C13.4058 54.5485 18.5484 57.2654 24.1469 58.3657C29.7455 59.4664 35.5485 58.9016 40.8223 56.7427C46.0962 54.5838 50.6034 50.9277 53.7747 46.237C56.946 41.5465 58.6386 36.0318 58.6386 30.3903C58.6386 22.8254 55.5983 15.5703 50.1857 10.2211C44.773 4.87186 37.432 1.8667 29.7775 1.8667ZM29.7775 48.5005C26.1532 48.5005 22.6103 47.4387 19.5969 45.4485C16.5834 43.4585 14.2347 40.6301 12.8477 37.3208C11.4608 34.0116 11.0979 30.3702 11.8049 26.8572C12.512 23.3442 14.2573 20.1172 16.82 17.5845C19.3827 15.0517 22.6479 13.3269 26.2025 12.6281C29.7572 11.9293 33.4416 12.2879 36.79 13.6587C40.1384 15.0294 43.0003 17.3506 45.0139 20.3288C47.0276 23.3071 48.102 26.8085 48.102 30.3903C48.102 35.1935 46.1717 39.7999 42.735 43.1962C39.2984 46.5928 34.6375 48.5005 29.7775 48.5005Z" fill="#FAFAFA"/>
<path d="M30.2358 0.961914H29.3196V59.8203H30.2358V0.961914Z" fill="#FAFAFA"/>
<path d="M59.5551 29.938H-0.00012207V30.8435H59.5551V29.938Z" fill="#FAFAFA"/>
<path d="M59.5561 30.3915C59.5621 25.2003 58.1712 20.1009 55.527 15.6157L29.7784 30.3915L44.6804 55.8664C49.2045 53.2843 52.9606 49.5703 55.5719 45.0987C58.1832 40.6269 59.5575 35.5545 59.5561 30.3915Z" fill="#FAFAFA"/>
<path d="M31.0291 30.7197L55.1828 16.8594C58.6697 23.2499 59.5586 30.7145 57.6677 37.7305C55.7768 44.7465 51.249 50.7855 45.0074 54.6149L31.0291 30.7197Z" fill="#020202"/>
<path d="M38.4823 29.938V41.7096H47.6448V61.6308H59.5557V41.7096H68.718V29.938H38.4823Z" fill="#FAFAFA"/>
<path d="M48.561 60.7255V40.8041H39.3986V30.8435H67.8016V40.8041H58.6393V60.7255H48.561Z" fill="#F53505"/>
<path d="M92.0132 40.4941C92.0123 35.642 93.823 30.9601 97.0988 27.3461C98.8747 25.383 101.059 23.8229 103.503 22.7725C105.946 21.7222 108.59 21.2066 111.254 21.261C114.846 21.261 117.952 22.0397 120.572 23.5972C123.066 25.0216 125.082 27.1372 126.372 29.6823L120.6 33.6484C120.03 32.3185 119.144 31.1442 118.016 30.2256C116.997 29.4161 115.831 28.8075 114.58 28.4326C113.431 28.0827 112.236 27.8997 111.034 27.8893C109.305 27.848 107.593 28.2405 106.059 29.0303C104.682 29.763 103.481 30.7825 102.541 32.0185C101.599 33.2636 100.883 34.6607 100.424 36.1476C99.9518 37.6425 99.711 39.1995 99.7096 40.7657C99.7077 42.4208 99.9866 44.0644 100.534 45.6283C101.053 47.15 101.845 48.567 102.871 49.8117C103.862 51.0129 105.099 51.9937 106.499 52.6916C107.94 53.4049 109.533 53.7678 111.145 53.7506C112.378 53.7411 113.603 53.5393 114.773 53.1532C116.04 52.7432 117.215 52.0977 118.236 51.2514C119.348 50.3181 120.231 49.1477 120.82 47.8289L126.977 51.4143C126.16 53.3478 124.843 55.0342 123.156 56.3042C121.409 57.6479 119.437 58.6781 117.329 59.347C115.263 60.0227 113.102 60.3712 110.925 60.3789C108.286 60.4124 105.676 59.8258 103.311 58.6676C101.042 57.5434 99.0158 55.9932 97.3461 54.1041C95.6658 52.2114 94.335 50.0412 93.4154 47.6931C92.4963 45.4012 92.021 42.9593 92.0132 40.4941Z" fill="#FAFAFA"/>
<path d="M138.026 60.1071V38.3205H128.845V31.9094H154.573V38.3205H145.392V60.1071H138.026Z" fill="#FAFAFA"/>
<path d="M156.607 51.7927C156.573 50.0715 157.125 48.3887 158.174 47.0151C159.309 45.5875 160.807 44.4851 162.517 43.821C164.57 43.0141 166.767 42.6215 168.976 42.6665C170.209 42.6684 171.44 42.7592 172.659 42.9382C173.775 43.0844 174.866 43.3767 175.903 43.8075V42.2399C175.903 40.4978 175.371 39.1464 174.308 38.1854C173.245 37.2253 171.651 36.7451 169.526 36.7447C167.967 36.7349 166.42 37.0112 164.963 37.5596C163.382 38.181 161.871 38.964 160.455 39.8958L158.146 35.1691C159.922 33.9463 161.878 33.0025 163.946 32.371C165.988 31.7668 168.109 31.4647 170.24 31.4743C174.345 31.4743 177.542 32.4654 179.833 34.4473C182.123 36.4288 183.269 39.2942 183.269 43.0435V51.9886C183.217 52.5548 183.363 53.122 183.681 53.5954C184.037 53.9552 184.519 54.1661 185.028 54.1847V60.1069C184.368 60.2155 183.773 60.306 183.241 60.3784C182.796 60.4472 182.344 60.4653 181.895 60.4327C180.428 60.4327 179.32 60.1159 178.569 59.4818C177.839 58.8867 177.358 58.0444 177.222 57.1184L177.057 55.6515C175.794 57.2302 174.175 58.4952 172.329 59.3461C170.545 60.196 168.592 60.6414 166.612 60.65C164.827 60.6781 163.062 60.2725 161.472 59.4692C160.014 58.7387 158.78 57.6362 157.899 56.2756C157.038 54.9364 156.589 53.379 156.607 51.7927ZM174.529 53.155C174.927 52.8079 175.261 52.396 175.518 51.9371C175.741 51.5849 175.873 51.1848 175.903 50.7707V47.9633C174.98 47.5976 174.022 47.3228 173.044 47.1422C172.085 46.9544 171.109 46.8567 170.131 46.8503C168.48 46.7833 166.845 47.1979 165.431 48.042C164.869 48.3602 164.403 48.8196 164.08 49.3731C163.756 49.9271 163.587 50.5557 163.589 51.1952C163.594 51.9176 163.803 52.6241 164.194 53.2351C164.614 53.904 165.213 54.4449 165.925 54.7979C166.789 55.2111 167.742 55.4112 168.702 55.3804C169.814 55.3777 170.916 55.1618 171.945 54.7445C172.903 54.3861 173.78 53.8457 174.529 53.155Z" fill="#FAFAFA"/>
<path d="M194.868 31.9094L200.861 40.6812L201.355 41.7034L201.905 40.6812L207.897 31.9094H215.649L205.643 45.9546L215.813 60.107H208.062L201.905 51.3361L201.355 50.4209L200.916 51.3361L194.759 60.107H187.007L197.177 46.116L187.172 31.9094H194.868Z" fill="#FAFAFA"/>
<path d="M216.968 51.7927C216.934 50.0715 217.486 48.3887 218.535 47.0151C219.67 45.5875 221.169 44.4851 222.878 43.821C224.932 43.0141 227.128 42.6215 229.338 42.6665C230.57 42.6684 231.801 42.7592 233.021 42.9382C234.136 43.0843 235.227 43.3766 236.265 43.8075V42.2399C236.265 40.4978 235.733 39.1464 234.67 38.1854C233.607 37.2253 232.012 36.745 229.888 36.7447C228.329 36.7349 226.782 37.0112 225.324 37.5596C223.744 38.1809 222.233 38.964 220.817 39.8958L218.508 35.1691C220.283 33.9463 222.24 33.0025 224.307 32.371C226.349 31.7669 228.47 31.4647 230.602 31.4743C234.706 31.4743 237.904 32.4654 240.195 34.4473C242.485 36.4288 243.63 39.2942 243.631 43.0435V51.9886C243.579 52.5548 243.724 53.122 244.042 53.5954C244.399 53.9552 244.881 54.1661 245.389 54.1847V60.1069C244.729 60.2155 244.134 60.306 243.603 60.3784C243.158 60.4472 242.706 60.4653 242.256 60.4327C240.79 60.4327 239.681 60.1159 238.93 59.4818C238.2 58.8867 237.72 58.0444 237.583 57.1184L237.419 55.6515C236.156 57.2302 234.537 58.4952 232.691 59.3461C230.907 60.196 228.954 60.6414 226.974 60.65C225.188 60.6781 223.423 60.2725 221.833 59.4692C220.375 58.7387 219.142 57.6362 218.26 56.2756C217.4 54.9364 216.951 53.379 216.968 51.7927ZM234.89 53.155C235.288 52.8079 235.623 52.396 235.879 51.9371C236.102 51.5849 236.234 51.1848 236.264 50.7707V47.9633C235.341 47.5976 234.383 47.3228 233.406 47.1422C232.446 46.9544 231.47 46.8567 230.492 46.8503C228.841 46.7833 227.206 47.1979 225.792 48.042C225.23 48.3602 224.764 48.8196 224.441 49.3731C224.117 49.9271 223.948 50.5557 223.95 51.1952C223.954 51.9176 224.164 52.6241 224.555 53.2351C224.975 53.904 225.574 54.4449 226.286 54.7979C227.15 55.2111 228.103 55.4112 229.063 55.3804C230.175 55.3777 231.277 55.1618 232.306 54.7445C233.264 54.3861 234.141 53.8457 234.89 53.155Z" fill="#FAFAFA"/>
<path d="M250.501 60.1071V31.9094H257.868V42.6126H269.522V31.9094H276.943V60.1071H269.522V48.6975H257.868V60.1071H250.501Z" fill="#FAFAFA"/>
<path d="M296.955 60.6508C294.797 60.6861 292.654 60.2842 290.66 59.4691C288.87 58.7232 287.253 57.6261 285.905 56.2448C284.601 54.9092 283.583 53.3287 282.909 51.5971C282.226 49.8397 281.881 47.9722 281.892 46.0901C281.877 44.1637 282.222 42.251 282.909 40.4481C283.578 38.6874 284.61 37.0832 285.939 35.7375C287.269 34.3917 288.867 33.3336 290.632 32.6304C294.693 31.0897 299.188 31.0897 303.249 32.6304C305.035 33.3581 306.653 34.4368 308.004 35.8011C309.317 37.1342 310.345 38.7145 311.028 40.448C311.732 42.247 312.086 44.1612 312.072 46.09C312.081 47.9745 311.727 49.8437 311.028 51.5971C310.327 53.355 309.278 54.9567 307.942 56.3086C306.606 57.6601 305.01 58.7345 303.249 59.4687C301.254 60.2838 299.112 60.6861 296.955 60.6508ZM289.423 46.0891C289.399 47.5857 289.738 49.0662 290.413 50.4068C291.022 51.6315 291.964 52.6648 293.133 53.3916C294.278 54.0995 295.604 54.4688 296.955 54.4571C298.3 54.4706 299.62 54.0904 300.747 53.3645C301.9 52.6181 302.837 51.5903 303.469 50.3805C304.166 49.0377 304.515 47.5454 304.486 46.0365C304.511 44.5452 304.162 43.0709 303.469 41.7461C302.837 40.5359 301.9 39.5077 300.747 38.7612C299.602 38.03 298.263 37.65 296.9 37.6687C295.554 37.655 294.234 38.0351 293.106 38.7612C291.957 39.5035 291.028 40.5334 290.413 41.7461C289.733 43.0935 289.393 44.5837 289.423 46.0891Z" fill="#FAFAFA"/>
<path d="M316.964 60.1071V31.9094H332.961C334.976 31.9094 336.598 32.2317 337.826 32.8762C338.964 33.4363 339.909 34.3135 340.547 35.3993C341.127 36.4147 341.431 37.5617 341.427 38.7278C341.462 40.1724 341.081 41.5972 340.328 42.8357C339.539 44.047 338.412 45.0072 337.084 45.6007C338.633 46.0083 340.034 46.8401 341.125 48.0006C342.205 49.2303 342.766 50.8229 342.692 52.4496C342.757 53.9898 342.324 55.51 341.455 56.7904C340.551 57.979 339.291 58.8565 337.854 59.2978C336.043 59.8731 334.148 60.1464 332.247 60.1071H316.964ZM323.945 43.5905H331.147C331.776 43.5989 332.395 43.4336 332.933 43.1133C333.447 42.8143 333.858 42.371 334.115 41.8399C334.375 41.2926 334.507 40.6942 334.5 40.0895C334.515 39.2456 334.2 38.4284 333.621 37.8085C333.32 37.4894 332.953 37.2387 332.545 37.0737C332.137 36.9089 331.697 36.8337 331.257 36.8535H323.945V43.5905ZM323.945 55.1629H332.026C332.661 55.1692 333.286 55.0131 333.841 54.7085C334.384 54.4116 334.84 53.9775 335.16 53.4516C335.494 52.9022 335.665 52.2717 335.655 51.6313C335.658 51.004 335.497 50.3866 335.187 49.8395C334.897 49.3086 334.458 48.8718 333.923 48.5821C333.374 48.2925 332.759 48.1454 332.136 48.1544H323.945V55.1629Z" fill="#FAFAFA"/>
<path d="M361.438 60.6508C359.292 60.6811 357.162 60.2882 355.171 59.4962C353.407 58.7892 351.806 57.737 350.464 56.4032C349.123 55.0689 348.068 53.4803 347.365 51.7328C346.66 49.9713 346.305 48.0926 346.32 46.1986C346.297 43.6392 346.93 41.1157 348.162 38.8639C349.377 36.6375 351.182 34.7799 353.384 33.4904C355.638 32.1474 358.341 31.4755 361.492 31.4749C364.607 31.4749 367.283 32.1475 369.519 33.4928C371.69 34.7719 373.474 36.6022 374.687 38.7934C375.897 40.9875 376.522 43.4507 376.501 45.9498C376.501 46.4166 376.481 46.8556 376.446 47.2684C376.408 47.6807 376.372 48.0306 376.336 48.3175H354.126C354.191 49.669 354.618 50.9792 355.363 52.1148C356.055 53.139 357.001 53.9714 358.112 54.5308C359.207 55.092 360.424 55.3839 361.657 55.3803C363.128 55.3884 364.576 55.0236 365.863 54.3212C367.069 53.717 368.015 52.7045 368.529 51.4685L374.796 53.2074C374.116 54.6842 373.122 55.9999 371.883 57.0648C370.544 58.2203 368.996 59.1147 367.32 59.6999C365.431 60.3548 363.44 60.6766 361.438 60.6508ZM353.906 43.7538H368.969C368.859 42.4443 368.435 41.1796 367.733 40.0638C367.072 39.036 366.154 38.1946 365.067 37.6214C363.932 37.0291 362.666 36.7278 361.383 36.7453C360.127 36.7298 358.888 37.0313 357.783 37.6214C356.707 38.2002 355.799 39.0409 355.144 40.0638C354.44 41.1792 354.016 42.4442 353.906 43.7538Z" fill="#FAFAFA"/>
<path d="M403.493 67.0079V60.1076H381.009V31.9102H388.375V53.7509H398.435V31.9102H405.857V53.7509H409.87V67.0079H403.493Z" fill="#FAFAFA"/>
</g>
</svg>
