<svg width="120" height="120" viewBox="0 0 120 120" fill="none" xmlns="http://www.w3.org/2000/svg">
<g clip-path="url(#clip0_1_325)">
<path d="M0.75 60C0.75 67.7808 2.28255 75.4855 5.26014 82.674C8.23773 89.8625 12.6021 96.3942 18.1039 101.896C23.6058 107.398 30.1375 111.762 37.326 114.74C44.5145 117.717 52.2192 119.25 60 119.25C67.7808 119.25 75.4855 117.717 82.674 114.74C89.8625 111.762 96.3942 107.398 101.896 101.896C107.398 96.3942 111.762 89.8625 114.74 82.674C117.717 75.4855 119.25 67.7808 119.25 60C119.25 44.2859 113.008 29.2155 101.896 18.1039C90.7845 6.99239 75.7141 0.75 60 0.75C44.2859 0.75 29.2155 6.99239 18.1039 18.1039C6.99239 29.2155 0.75 44.2859 0.75 60Z" stroke="#FA6E37" stroke-linecap="round" stroke-linejoin="round"/>
<path d="M60 27.0833V60L79.75 79.75" stroke="#FA6E37" stroke-linecap="round" stroke-linejoin="round"/>
</g>
<defs>
<clipPath id="clip0_1_325">
<rect width="120" height="120" fill="white"/>
</clipPath>
</defs>
</svg>
