<svg width="52" height="53" viewBox="0 0 52 53" fill="none" xmlns="http://www.w3.org/2000/svg">
<path d="M23.5897 44.6236C23.8179 44.3951 23.9461 44.0853 23.9461 43.7623C23.9461 43.4394 23.8179 43.1296 23.5897 42.9011L11.0467 30.3561L43.8534 30.3561C44.1766 30.3561 44.4866 30.2277 44.7152 29.9991C44.9438 29.7705 45.0722 29.4605 45.0722 29.1373C45.0722 28.8141 44.9438 28.5041 44.7152 28.2755C44.4866 28.047 44.1766 27.9186 43.8534 27.9186L11.0467 27.9186L23.5897 15.3736C23.8049 15.1425 23.9221 14.837 23.9166 14.5212C23.911 14.2055 23.7831 13.9042 23.5598 13.6809C23.3365 13.4576 23.0353 13.3297 22.7195 13.3242C22.4038 13.3186 22.0982 13.4358 21.8672 13.6511L7.24217 28.2761C7.01394 28.5046 6.88574 28.8144 6.88574 29.1373C6.88574 29.4603 7.01394 29.7701 7.24217 29.9986L21.8672 44.6236C22.0957 44.8518 22.4054 44.98 22.7284 44.98C23.0514 44.98 23.3612 44.8518 23.5897 44.6236Z" fill="white"/>
</svg>
