<svg width="143" height="144" viewBox="0 0 143 144" fill="none" xmlns="http://www.w3.org/2000/svg">
<rect x="2.5" y="3.48486" width="138" height="138" rx="69" stroke="#FA6E37" stroke-width="5"/>
<rect x="33" y="33.9849" width="77" height="77" rx="38.5" fill="#232323"/>
<g clip-path="url(#clip0_1_308)">
<path d="M62.7703 84.7817C62.7705 84.4587 62.8988 84.149 63.1272 83.9207C63.3556 83.6923 63.6653 83.5639 63.9882 83.5637L81.7281 83.5623L58.5303 60.3644C58.3017 60.1359 58.1733 59.8259 58.1733 59.5026C58.1733 59.1794 58.3017 58.8694 58.5303 58.6408C58.7588 58.4123 59.0688 58.2839 59.3921 58.2839C59.7153 58.2839 60.0253 58.4123 60.2538 58.6408L83.4517 81.8387L83.4531 64.0988C83.4643 63.7832 83.5975 63.4843 83.8247 63.265C84.0519 63.0456 84.3553 62.9231 84.6711 62.9231C84.9869 62.9231 85.2904 63.0456 85.5176 63.265C85.7448 63.4843 85.878 63.7832 85.8891 64.0988L85.8891 84.7817C85.8889 85.1047 85.7605 85.4144 85.5321 85.6427C85.3038 85.8711 84.9941 85.9995 84.6711 85.9997L63.9882 85.9997C63.6653 85.9995 63.3556 85.8711 63.1272 85.6427C62.8988 85.4144 62.7705 85.1047 62.7703 84.7817Z" fill="white"/>
</g>
<defs>
<clipPath id="clip0_1_308">
<rect width="52" height="52" fill="white" transform="translate(46 43.9849)"/>
</clipPath>
</defs>
</svg>
