<svg width="264" height="191" viewBox="0 0 264 191" fill="none" xmlns="http://www.w3.org/2000/svg">
<path d="M1 196.985V190.485C1 183.857 6.37258 178.485 13 178.485H196.5C199.814 178.485 202.5 175.799 202.5 172.485V127.485C202.5 120.857 207.873 115.485 214.5 115.485H236.5C239.814 115.485 242.5 112.799 242.5 109.485V12.9849C242.5 6.35745 247.873 0.984863 254.5 0.984863H269.5" stroke="#FA6E37"/>
<path d="M8 190.985V188.985C8 186.776 9.79086 184.985 12 184.985H197.5C204.127 184.985 209.5 179.612 209.5 172.985V128.485C209.5 125.171 212.186 122.485 215.5 122.485H239.5C246.127 122.485 251.5 117.112 251.5 110.485V18.9849C251.5 15.6712 254.186 12.9849 257.5 12.9849H276.5" stroke="#FD6225" stroke-dasharray="2 2"/>
<path d="M15 196.985V194.985C15 192.776 16.7909 190.985 19 190.985H204.5C211.127 190.985 216.5 185.612 216.5 178.985V134.485C216.5 131.171 219.186 128.485 222.5 128.485H246.5C253.127 128.485 258.5 123.112 258.5 116.485V24.9849C258.5 21.6712 261.186 18.9849 264.5 18.9849H283.5" stroke="#FF6D33" stroke-width="0.7" stroke-dasharray="2 2"/>
<path d="M22 202.985V200.985C22 198.776 23.7909 196.985 26 196.985H211.5C218.127 196.985 223.5 191.612 223.5 184.985V140.485C223.5 137.171 226.186 134.485 229.5 134.485H253.5C260.127 134.485 265.5 129.112 265.5 122.485V30.9849C265.5 27.6712 268.186 24.9849 271.5 24.9849H290.5" stroke="#FF8454" stroke-width="0.4" stroke-dasharray="2 2"/>
<path d="M27 207.985V205.985C27 203.776 28.7909 201.985 31 201.985H216.5C223.127 201.985 228.5 196.612 228.5 189.985V145.485C228.5 142.171 231.186 139.485 234.5 139.485H258.5C265.127 139.485 270.5 134.112 270.5 127.485V35.9849C270.5 32.6712 273.186 29.9849 276.5 29.9849H295.5" stroke="#FF8454" stroke-width="0.3" stroke-dasharray="2 2"/>
<path d="M33 212.985V210.985C33 208.776 34.7909 206.985 37 206.985H222.5C229.127 206.985 234.5 201.612 234.5 194.985V150.485C234.5 147.171 237.186 144.485 240.5 144.485H264.5C271.127 144.485 276.5 139.112 276.5 132.485V40.9849C276.5 37.6712 279.186 34.9849 282.5 34.9849H301.5" stroke="#FF8454" stroke-width="0.2" stroke-dasharray="2 2"/>
<path d="M39 217.985V215.985C39 213.776 40.7909 211.985 43 211.985H228.5C235.127 211.985 240.5 206.612 240.5 199.985V155.485C240.5 152.171 243.186 149.485 246.5 149.485H270.5C277.127 149.485 282.5 144.112 282.5 137.485V45.9849C282.5 42.6712 285.186 39.9849 288.5 39.9849H307.5" stroke="#FF8454" stroke-width="0.1" stroke-dasharray="2 2"/>
<path d="M44 222.985V220.985C44 218.776 45.7909 216.985 48 216.985H233.5C240.127 216.985 245.5 211.612 245.5 204.985V160.485C245.5 157.171 248.186 154.485 251.5 154.485H275.5C282.127 154.485 287.5 149.112 287.5 142.485V50.9849C287.5 47.6712 290.186 44.9849 293.5 44.9849H312.5" stroke="#FF8454" stroke-width="0.09" stroke-dasharray="2 2"/>
</svg>
