<svg width="43" height="44" viewBox="0 0 43 44" fill="none" xmlns="http://www.w3.org/2000/svg">
<rect y="0.984863" width="43" height="43" rx="5" fill="#CCCCCC"/>
<path fill-rule="evenodd" clip-rule="evenodd" d="M22.5 30.9573C21.086 30.9533 19.702 30.5483 18.51 29.7873L15 30.9573L16.17 27.4463C15.289 26.0393 14.9 24.3793 15.064 22.7273C15.229 21.0763 15.939 19.5253 17.081 18.3213C18.223 17.1163 19.733 16.3252 21.374 16.0722C23.015 15.8192 24.693 16.1193 26.145 16.9253C27.596 17.7303 28.739 18.9952 29.393 20.5202C30.048 22.0462 30.176 23.7462 29.759 25.3532C29.342 26.9602 28.402 28.3823 27.088 29.3973C25.774 30.4113 24.16 30.9603 22.5 30.9573ZM24.13 24.5932C24.629 24.7542 25.136 24.8883 25.65 24.9933C25.704 25.0013 25.756 25.0203 25.802 25.0483C25.849 25.0773 25.89 25.1143 25.921 25.1593C25.953 25.2033 25.975 25.2532 25.987 25.3072C25.999 25.3602 26 25.4153 25.99 25.4693V25.7572C25.995 25.8602 25.976 25.9623 25.934 26.0563C25.893 26.1503 25.829 26.2332 25.75 26.2992C25.504 26.5492 25.212 26.7503 24.89 26.8913C24.415 26.9473 23.934 26.9052 23.477 26.7682C23.019 26.6302 22.595 26.4002 22.23 26.0912C21.76 25.7752 21.321 25.4163 20.92 25.0163C20.521 24.6133 20.159 24.1742 19.84 23.7052C19.534 23.3402 19.305 22.9163 19.17 22.4593C19.034 22.0033 18.993 21.5233 19.05 21.0503C19.191 20.7303 19.391 20.4403 19.64 20.1943C19.703 20.1133 19.786 20.0493 19.88 20.0083C19.974 19.9663 20.078 19.9492 20.18 19.9582H20.47C20.579 19.9432 20.69 19.9722 20.778 20.0382C20.867 20.1052 20.925 20.2043 20.94 20.3133C21.09 20.9053 21.2 21.3333 21.35 21.8133C21.41 22.0133 21.34 22.0613 21.18 22.1813C21.08 22.2583 21 22.3143 20.92 22.3733C20.874 22.3933 20.832 22.4232 20.798 22.4602C20.764 22.4972 20.738 22.5422 20.722 22.5902C20.706 22.6382 20.7 22.6882 20.705 22.7392C20.71 22.7892 20.725 22.8382 20.75 22.8822C21.005 23.3732 21.332 23.8243 21.72 24.2203C22.115 24.6083 22.567 24.9342 23.06 25.1872C23.104 25.2112 23.153 25.2272 23.203 25.2312C23.253 25.2362 23.304 25.2303 23.352 25.2143C23.4 25.1983 23.444 25.1733 23.482 25.1393C23.519 25.1053 23.549 25.0642 23.57 25.0182C23.63 24.9372 23.68 24.8612 23.76 24.7572C23.772 24.7212 23.792 24.6883 23.818 24.6603C23.843 24.6313 23.874 24.6092 23.909 24.5932C23.943 24.5772 23.981 24.5682 24.019 24.5672C24.057 24.5662 24.095 24.5723 24.13 24.5863V24.5932Z" fill="#3A3A3A"/>
</svg>
